#VRML V2.0 utf8
# Generated from models/at6558r_qfn40.scad by tools/gen_3d.ts (OpenSCAD -> STL -> VRML).
# Coordinates are millimetres divided by 2.54, the unit KiCad expects.

Shape {
  appearance Appearance {
    material Material {
      diffuseColor 0.15 0.15 0.16
      specularColor 0.1 0.1 0.1
      ambientIntensity 0.3
      shininess 0.2
    }
  }
  geometry IndexedFaceSet {
    solid TRUE
    creaseAngle 0.7
    coord Coordinate {
      point [
        -0.984252 -0.984252 0.019685,
        -0.984252 0.984252 0.334645,
        -0.984252 0.984252 0.019685,
        0.984252 -0.984252 0.334645,
        -0.984252 -0.984252 0.334645,
        0.984252 0.984252 0.019685,
        0.984252 -0.984252 0.019685,
        -0.900972 0.623205 0.334645,
        -0.759689 0.451051 0.334645,
        -0.800528 0.472882 0.334645,
        -0.715374 0.437610 0.334645,
        -0.669291 0.433071 0.334645,
        -0.623205 0.437610 0.334645,
        -0.578894 0.451051 0.334645,
        -0.538055 0.472882 0.334645,
        -0.905512 0.669291 0.334645,
        -0.623205 0.900972 0.334645,
        0.984252 0.984252 0.334645,
        -0.905512 0.669291 0.275591,
        -0.900972 0.623205 0.275591,
        -0.900972 0.715374 0.275591,
        -0.900972 0.715374 0.334645,
        -0.887531 0.578894 0.334645,
        -0.887531 0.578894 0.275591,
        -0.887531 0.759689 0.275591,
        -0.887531 0.759689 0.334645,
        -0.865701 0.538055 0.334645,
        -0.865701 0.538055 0.275591,
        -0.865701 0.800528 0.275591,
        -0.865701 0.800528 0.334645,
        -0.836323 0.502260 0.334645,
        -0.836323 0.502260 0.275591,
        -0.836323 0.836323 0.275591,
        -0.836323 0.836323 0.334645,
        -0.800528 0.472882 0.275591,
        -0.800528 0.865701 0.275591,
        -0.800528 0.865701 0.334645,
        -0.759689 0.451051 0.275591,
        -0.759689 0.887531 0.275591,
        -0.759689 0.887531 0.334645,
        -0.715374 0.437610 0.275591,
        -0.715374 0.900972 0.275591,
        -0.715374 0.900972 0.334645,
        -0.669291 0.433071 0.275591,
        -0.669291 0.905512 0.275591,
        -0.669291 0.905512 0.334645,
        -0.623205 0.437610 0.275591,
        -0.623205 0.900972 0.275591,
        -0.578894 0.451051 0.275591,
        -0.578894 0.887531 0.275591,
        -0.578894 0.887531 0.334645,
        -0.538055 0.472882 0.275591,
        -0.538055 0.865701 0.275591,
        -0.538055 0.865701 0.334645,
        -0.502260 0.502260 0.275591,
        -0.502260 0.502260 0.334645,
        -0.502260 0.836323 0.275591,
        -0.502260 0.836323 0.334645,
        -0.472882 0.538055 0.334645,
        -0.472882 0.538055 0.275591,
        -0.472882 0.800528 0.275591,
        -0.472882 0.800528 0.334645,
        -0.451051 0.578894 0.334645,
        -0.451051 0.578894 0.275591,
        -0.451051 0.759689 0.275591,
        -0.451051 0.759689 0.334645,
        -0.437610 0.623205 0.334645,
        -0.437610 0.623205 0.275591,
        -0.437610 0.715374 0.275591,
        -0.437610 0.715374 0.334645,
        -0.433071 0.669291 0.334645,
        -0.433071 0.669291 0.275591
      ]
    }
    coordIndex [
        0 1 2 -1,
        0 3 4 -1,
        0 5 6 -1,
        4 7 1 -1,
        4 8 9 -1,
        4 10 8 -1,
        4 11 10 -1,
        4 12 11 -1,
        4 13 12 -1,
        4 14 13 -1,
        1 0 4 -1,
        1 7 15 -1,
        1 16 17 -1,
        1 5 2 -1,
        18 7 19 -1,
        15 20 21 -1,
        19 20 18 -1,
        19 22 23 -1,
        7 4 22 -1,
        7 18 15 -1,
        20 15 18 -1,
        20 19 23 -1,
        20 23 24 -1,
        21 1 15 -1,
        21 24 25 -1,
        23 26 27 -1,
        22 4 26 -1,
        22 19 7 -1,
        24 21 20 -1,
        24 23 27 -1,
        24 27 28 -1,
        25 1 21 -1,
        25 28 29 -1,
        27 30 31 -1,
        26 4 30 -1,
        26 23 22 -1,
        28 25 24 -1,
        28 27 31 -1,
        28 31 32 -1,
        29 1 25 -1,
        29 32 33 -1,
        30 4 9 -1,
        30 27 26 -1,
        30 34 31 -1,
        32 29 28 -1,
        32 31 34 -1,
        32 34 35 -1,
        32 36 33 -1,
        33 1 29 -1,
        34 30 9 -1,
        9 37 34 -1,
        35 34 37 -1,
        35 37 38 -1,
        35 39 36 -1,
        36 1 33 -1,
        36 32 35 -1,
        37 9 8 -1,
        8 40 37 -1,
        38 37 40 -1,
        38 40 41 -1,
        38 42 39 -1,
        39 1 36 -1,
        39 35 38 -1,
        40 8 10 -1,
        10 43 40 -1,
        41 40 43 -1,
        41 43 44 -1,
        41 45 42 -1,
        42 1 39 -1,
        42 38 41 -1,
        43 10 11 -1,
        11 46 43 -1,
        44 43 46 -1,
        44 46 47 -1,
        44 16 45 -1,
        45 1 42 -1,
        45 41 44 -1,
        46 11 12 -1,
        12 48 46 -1,
        47 46 48 -1,
        47 48 49 -1,
        47 50 16 -1,
        16 1 45 -1,
        16 44 47 -1,
        48 12 13 -1,
        13 51 48 -1,
        49 48 51 -1,
        49 51 52 -1,
        49 53 50 -1,
        50 47 49 -1,
        51 13 14 -1,
        14 4 3 -1,
        14 54 51 -1,
        14 3 55 -1,
        52 51 54 -1,
        52 54 56 -1,
        52 57 53 -1,
        53 49 52 -1,
        54 14 55 -1,
        54 58 59 -1,
        55 3 58 -1,
        56 54 59 -1,
        56 59 60 -1,
        57 52 56 -1,
        57 60 61 -1,
        59 62 63 -1,
        58 54 55 -1,
        58 17 62 -1,
        60 57 56 -1,
        60 59 63 -1,
        60 63 64 -1,
        61 64 65 -1,
        63 66 67 -1,
        62 59 58 -1,
        62 17 66 -1,
        64 61 60 -1,
        64 63 67 -1,
        64 67 68 -1,
        65 68 69 -1,
        67 70 71 -1,
        66 63 62 -1,
        66 17 70 -1,
        68 65 64 -1,
        68 67 71 -1,
        69 71 70 -1,
        71 69 68 -1,
        70 67 66 -1,
        3 0 6 -1,
        3 5 17 -1,
        5 0 2 -1,
        5 1 17 -1,
        5 3 6 -1,
        17 16 50 -1,
        17 50 53 -1,
        17 53 57 -1,
        17 57 61 -1,
        17 58 3 -1,
        17 61 65 -1,
        17 65 69 -1,
        17 69 70 -1
    ]
  }
}
