#VRML V2.0 utf8
# Generated from models/kyocera_6844_fpc13.scad by tools/gen_3d.ts (OpenSCAD -> STL -> VRML).
# Coordinates are millimetres divided by 2.54, the unit KiCad expects.

Shape {
  appearance Appearance {
    material Material {
      diffuseColor 0.9 0.87 0.78
      specularColor 0.1 0.1 0.1
      ambientIntensity 0.3
      shininess 0.2
    }
  }
  geometry IndexedFaceSet {
    solid TRUE
    creaseAngle 0.7
    coord Coordinate {
      point [
        -1.082677 -0.787402 0.000000,
        1.082677 -0.787402 0.374016,
        -1.082677 -0.787402 0.374016,
        1.082677 0.314960 0.000000,
        1.082677 -0.787402 0.000000,
        -1.082677 0.314960 0.236220,
        -1.082677 0.314960 0.000000,
        -1.082677 0.787402 0.374016,
        -1.082677 0.787402 0.236220,
        1.082677 0.787402 0.236220,
        1.082677 0.314960 0.236220,
        1.082677 0.787402 0.374016
      ]
    }
    coordIndex [
        0 1 2 -1,
        0 3 4 -1,
        2 5 0 -1,
        6 0 5 -1,
        5 2 7 -1,
        5 7 8 -1,
        5 3 6 -1,
        5 9 10 -1,
        7 1 11 -1,
        7 9 8 -1,
        4 10 1 -1,
        1 0 4 -1,
        1 7 2 -1,
        1 10 11 -1,
        3 0 6 -1,
        3 5 10 -1,
        10 4 3 -1,
        9 5 8 -1,
        9 7 11 -1,
        11 10 9 -1
    ]
  }
}
