#VRML V2.0 utf8
# Generated from models/l_axial_d2p8_l7p2.scad by tools/gen_3d.ts (OpenSCAD -> STL -> VRML).
# Coordinates are millimetres divided by 2.54, the unit KiCad expects.

Shape {
  appearance Appearance {
    material Material {
      diffuseColor 0.22 0.19 0.17
      specularColor 0.1 0.1 0.1
      ambientIntensity 0.3
      shininess 0.2
    }
  }
  geometry IndexedFaceSet {
    solid TRUE
    creaseAngle 0.7
    coord Coordinate {
      point [
        -2.098425 0.000000 -0.629921,
        -2.096535 0.019202 0.629921,
        -2.096535 0.019202 -0.629921,
        -2.098425 0.000000 0.629921,
        -2.096535 -0.019202 -0.629921,
        -2.096535 -0.019202 0.629921,
        -2.090933 0.037666 -0.629921,
        -2.090933 -0.037666 -0.629921,
        -2.090933 -0.037666 0.629921,
        -2.090933 0.037666 0.629921,
        -2.081839 0.054682 -0.629921,
        -2.081839 -0.054682 -0.629921,
        -2.081839 -0.054682 0.629921,
        -2.081839 0.054682 0.629921,
        -2.069598 0.069597 -0.629921,
        -2.069598 -0.069597 -0.629921,
        -2.069598 -0.069597 0.629921,
        -2.069598 0.069597 0.629921,
        -2.054681 0.081837 -0.629921,
        -2.054681 -0.081837 0.629921,
        -2.054681 -0.081837 -0.629921,
        -2.054681 0.081837 0.629921,
        -2.037665 0.090933 -0.629921,
        -2.037665 -0.090933 0.629921,
        -2.037665 -0.090933 -0.629921,
        -2.037665 0.090933 0.629921,
        -2.019201 0.096533 -0.629921,
        -2.019201 -0.096533 0.629921,
        -2.019201 -0.096533 -0.629921,
        -2.019201 0.096533 0.629921,
        -2.000000 0.098425 -0.629921,
        -2.000000 -0.098425 0.629921,
        -2.000000 -0.098425 -0.629921,
        -2.000000 0.098425 0.629921,
        -1.980799 0.096533 -0.629921,
        -1.980799 -0.096533 0.610720,
        -1.980799 -0.096533 -0.629921,
        -1.417323 -0.096533 0.649122,
        -2.000000 -0.096533 0.649122,
        -1.417323 -0.090933 0.667587,
        -2.000000 -0.090933 0.667587,
        -1.417323 -0.081837 0.684602,
        -2.000000 -0.081837 0.684602,
        -1.417323 -0.069597 0.699520,
        -2.000000 -0.069597 0.699520,
        -2.000000 -0.054682 0.711760,
        -1.417323 -0.054682 0.711760,
        -2.000000 -0.037666 0.720854,
        -1.417323 -0.037666 0.720854,
        -2.000000 -0.019202 0.726457,
        -1.417323 -0.019202 0.726457,
        -2.000000 0.000000 0.728346,
        -1.417323 0.000000 0.728346,
        -2.000000 0.019202 0.726457,
        -1.417323 0.019202 0.726457,
        -2.000000 0.037666 0.720854,
        -1.417323 0.037666 0.720854,
        -2.000000 0.054682 0.711760,
        -1.417323 0.054682 0.711760,
        -2.000000 0.069597 0.699520,
        -1.417323 0.069597 0.699520,
        -1.417323 0.081837 0.684602,
        -2.000000 0.081837 0.684602,
        -1.417323 0.090933 0.667587,
        -2.000000 0.090933 0.667587,
        -1.417323 0.096533 0.649122,
        -2.000000 0.096533 0.649122,
        -1.417323 0.098425 0.629921,
        -1.980799 0.096533 0.610720,
        -1.962335 0.090933 -0.629921,
        -1.962335 -0.090933 0.592256,
        -1.962335 -0.090933 -0.629921,
        -1.417323 -0.098425 0.629921,
        -1.962335 0.090933 0.592256,
        -1.417323 0.096533 0.610720,
        -1.945319 0.081837 -0.629921,
        -1.945319 -0.081837 0.575240,
        -1.945319 -0.081837 -0.629921,
        -1.417323 -0.096533 0.610720,
        -1.945319 0.081837 0.575240,
        -1.417323 0.090933 0.592256,
        -1.930402 0.069597 -0.629921,
        -1.930402 -0.069597 0.560323,
        -1.930402 -0.069597 -0.629921,
        -1.417323 -0.090933 0.592256,
        -1.930402 0.069597 0.560323,
        -1.417323 0.081837 0.575240,
        -1.918161 0.054682 -0.629921,
        -1.918161 -0.054682 0.548083,
        -1.918161 -0.054682 -0.629921,
        -1.417323 -0.081837 0.575240,
        -1.918161 0.054682 0.548083,
        -1.417323 0.069597 0.560323,
        -1.909067 0.037666 -0.629921,
        -1.909067 -0.037666 0.538988,
        -1.909067 -0.037666 -0.629921,
        -1.417323 -0.069597 0.560323,
        -1.909067 0.037666 0.538988,
        -1.417323 0.054682 0.548083,
        -1.903465 0.019202 -0.629921,
        -1.903465 -0.019202 0.533386,
        -1.903465 -0.019202 -0.629921,
        -1.417323 -0.054682 0.548083,
        -1.903465 0.019202 0.533386,
        -1.417323 0.037666 0.538988,
        -1.901575 0.000000 -0.629921,
        -1.901575 0.000000 0.531496,
        -1.417323 -0.037666 0.538988,
        -1.417323 0.019202 0.533386,
        -1.417323 -0.019202 0.533386,
        -1.417323 0.000000 0.531496,
        -1.417323 -0.551181 0.629921,
        -1.417323 -0.540591 0.522390,
        1.417323 -0.540591 0.737453,
        -1.417323 -0.540591 0.737453,
        -1.417323 -0.509224 0.418992,
        1.417323 -0.551181 0.629921,
        1.417323 -0.509224 0.840850,
        -1.417323 -0.509224 0.840850,
        -1.417323 -0.458291 0.323701,
        1.417323 -0.540591 0.522390,
        1.417323 -0.458291 0.936142,
        -1.417323 -0.458291 0.936142,
        -1.417323 -0.389744 0.240177,
        1.417323 -0.509224 0.418992,
        1.417323 -0.389744 1.019665,
        -1.417323 -0.389744 1.019665,
        -1.417323 -0.306220 0.171631,
        1.417323 -0.458291 0.323701,
        1.417323 -0.306220 0.171631,
        1.417323 -0.389744 0.240177,
        -1.417323 -0.210928 0.120696,
        1.417323 -0.210928 0.120696,
        -1.417323 -0.306220 1.088213,
        1.417323 -0.306220 1.088213,
        -1.417323 -0.107530 0.089331,
        1.417323 -0.107530 0.089331,
        -1.417323 -0.210928 1.139146,
        1.417323 -0.210928 1.139146,
        -1.417323 0.000000 0.078740,
        1.417323 0.000000 0.078740,
        -1.417323 -0.107530 1.170512,
        1.417323 -0.107530 1.170512,
        -1.417323 0.000000 1.181102,
        -1.417323 0.107530 0.089331,
        1.417323 0.107530 0.089331,
        -1.417323 0.107530 1.170512,
        1.417323 0.000000 1.181102,
        -1.417323 0.210928 0.120696,
        -1.417323 0.210928 1.139146,
        -1.417323 0.306220 0.171631,
        -1.417323 0.306220 1.088213,
        -1.417323 0.389744 0.240177,
        -1.417323 0.389744 1.019665,
        -1.417323 0.458291 0.323701,
        -1.417323 0.458291 0.936142,
        -1.417323 0.509224 0.418992,
        -1.417323 0.509224 0.840850,
        -1.417323 0.540591 0.522390,
        -1.417323 0.540591 0.737453,
        -1.417323 0.551181 0.629921,
        1.417323 0.210928 0.120696,
        1.417323 0.107530 1.170512,
        1.417323 0.306220 0.171631,
        1.417323 0.210928 1.139146,
        1.417323 0.389744 0.240177,
        1.417323 0.306220 1.088213,
        1.417323 0.389744 1.019665,
        1.417323 0.458291 0.936142,
        1.417323 0.509224 0.840850,
        1.417323 0.458291 0.323701,
        1.417323 0.540591 0.737453,
        1.417323 0.509224 0.418992,
        1.417323 0.551181 0.629921,
        1.417323 0.540591 0.522390,
        1.417323 -0.098425 0.629921,
        1.417323 -0.096533 0.610720,
        1.417323 -0.096533 0.649122,
        1.417323 -0.090933 0.592256,
        1.417323 -0.090933 0.667587,
        1.417323 -0.081837 0.575240,
        1.417323 -0.081837 0.684602,
        1.417323 -0.069597 0.560323,
        1.417323 -0.069597 0.699520,
        1.417323 -0.054682 0.548083,
        1.417323 -0.054682 0.711760,
        1.417323 -0.037666 0.538988,
        1.417323 -0.037666 0.720854,
        1.417323 -0.019202 0.533386,
        1.417323 -0.019202 0.726457,
        1.980799 -0.096533 0.610720,
        2.000000 -0.098425 0.629921,
        2.000000 -0.096533 0.649122,
        1.962335 -0.090933 0.592256,
        2.000000 -0.090933 0.667587,
        1.945319 -0.081837 0.575240,
        2.000000 -0.081837 0.684602,
        1.930402 -0.069597 0.560323,
        2.000000 -0.069597 0.699520,
        1.918161 -0.054682 0.548083,
        1.909067 -0.037666 0.538988,
        2.000000 -0.054682 0.711760,
        1.903465 -0.019202 0.533386,
        2.000000 -0.037666 0.720854,
        1.417323 0.000000 0.531496,
        1.901575 0.000000 0.531496,
        2.000000 -0.019202 0.726457,
        1.417323 0.019202 0.533386,
        1.417323 0.000000 0.728346,
        2.000000 0.000000 0.728346,
        1.417323 0.019202 0.726457,
        1.417323 0.037666 0.538988,
        2.000000 0.019202 0.726457,
        1.417323 0.054682 0.548083,
        1.903465 0.019202 0.533386,
        1.417323 0.037666 0.720854,
        2.000000 0.037666 0.720854,
        1.417323 0.069597 0.560323,
        1.909067 0.037666 0.538988,
        1.417323 0.054682 0.711760,
        2.000000 0.054682 0.711760,
        1.417323 0.081837 0.575240,
        1.918161 0.054682 0.548083,
        1.417323 0.069597 0.699520,
        2.000000 0.069597 0.699520,
        2.000000 0.081837 0.684602,
        1.417323 0.081837 0.684602,
        1.417323 0.090933 0.592256,
        1.930402 0.069597 0.560323,
        2.000000 0.090933 0.667587,
        1.417323 0.090933 0.667587,
        1.417323 0.096533 0.610720,
        1.945319 0.081837 0.575240,
        2.000000 0.096533 0.649122,
        1.417323 0.096533 0.649122,
        1.417323 0.098425 0.629921,
        1.962335 0.090933 0.592256,
        2.000000 0.098425 0.629921,
        1.980799 0.096533 0.610720,
        1.903465 -0.019202 -0.629921,
        1.903465 0.019202 -0.629921,
        1.901575 0.000000 -0.629921,
        1.909067 0.037666 -0.629921,
        1.909067 -0.037666 -0.629921,
        1.918161 0.054682 -0.629921,
        1.918161 -0.054682 -0.629921,
        1.930402 0.069597 -0.629921,
        1.930402 -0.069597 -0.629921,
        1.945319 0.081837 -0.629921,
        1.945319 -0.081837 -0.629921,
        1.962335 0.090933 -0.629921,
        1.962335 -0.090933 -0.629921,
        1.980799 0.096533 -0.629921,
        1.980799 -0.096533 -0.629921,
        2.000000 0.098425 -0.629921,
        2.000000 -0.098425 -0.629921,
        2.019201 0.096533 -0.629921,
        2.019201 -0.096533 0.629921,
        2.019201 -0.096533 -0.629921,
        2.019201 0.096533 0.629921,
        2.037665 0.090933 -0.629921,
        2.037665 -0.090933 0.629921,
        2.037665 -0.090933 -0.629921,
        2.037665 0.090933 0.629921,
        2.054681 0.081837 -0.629921,
        2.054681 -0.081837 0.629921,
        2.054681 -0.081837 -0.629921,
        2.054681 0.081837 0.629921,
        2.069598 0.069597 -0.629921,
        2.069598 -0.069597 0.629921,
        2.069598 -0.069597 -0.629921,
        2.069598 0.069597 0.629921,
        2.081839 0.054682 -0.629921,
        2.081839 -0.054682 -0.629921,
        2.081839 -0.054682 0.629921,
        2.081839 0.054682 0.629921,
        2.090933 0.037666 -0.629921,
        2.090933 -0.037666 -0.629921,
        2.090933 -0.037666 0.629921,
        2.090933 0.037666 0.629921,
        2.096535 0.019202 -0.629921,
        2.096535 -0.019202 -0.629921,
        2.096535 -0.019202 0.629921,
        2.096535 0.019202 0.629921,
        2.098425 0.000000 -0.629921,
        2.098425 0.000000 0.629921
      ]
    }
    coordIndex [
        0 1 2 -1,
        3 4 5 -1,
        4 3 0 -1,
        4 2 6 -1,
        4 6 7 -1,
        5 1 3 -1,
        5 7 8 -1,
        2 4 0 -1,
        2 9 6 -1,
        1 0 3 -1,
        1 5 8 -1,
        1 8 9 -1,
        7 5 4 -1,
        7 6 10 -1,
        7 10 11 -1,
        8 11 12 -1,
        6 13 10 -1,
        9 2 1 -1,
        9 8 12 -1,
        9 12 13 -1,
        11 8 7 -1,
        11 10 14 -1,
        11 14 15 -1,
        12 15 16 -1,
        10 17 14 -1,
        13 6 9 -1,
        13 12 16 -1,
        13 16 17 -1,
        15 12 11 -1,
        15 14 18 -1,
        15 19 16 -1,
        15 18 20 -1,
        17 10 13 -1,
        17 16 19 -1,
        17 19 21 -1,
        17 18 14 -1,
        20 18 22 -1,
        20 23 19 -1,
        20 22 24 -1,
        19 15 20 -1,
        18 17 21 -1,
        21 19 23 -1,
        21 23 25 -1,
        21 22 18 -1,
        24 22 26 -1,
        24 27 23 -1,
        24 26 28 -1,
        23 20 24 -1,
        22 21 25 -1,
        25 23 27 -1,
        25 27 29 -1,
        25 26 22 -1,
        28 26 30 -1,
        28 31 27 -1,
        28 30 32 -1,
        27 24 28 -1,
        26 25 29 -1,
        29 27 31 -1,
        29 31 33 -1,
        29 30 26 -1,
        32 30 34 -1,
        32 35 31 -1,
        32 34 36 -1,
        31 28 32 -1,
        31 37 38 -1,
        38 33 31 -1,
        38 39 40 -1,
        40 41 42 -1,
        42 43 44 -1,
        45 43 46 -1,
        47 46 48 -1,
        49 48 50 -1,
        51 50 52 -1,
        53 52 54 -1,
        55 54 56 -1,
        57 56 58 -1,
        59 58 60 -1,
        59 61 62 -1,
        62 63 64 -1,
        64 65 66 -1,
        66 67 33 -1,
        30 29 33 -1,
        30 68 34 -1,
        33 38 40 -1,
        33 40 42 -1,
        33 42 44 -1,
        33 44 45 -1,
        33 45 47 -1,
        33 47 49 -1,
        33 49 51 -1,
        33 51 53 -1,
        33 53 55 -1,
        33 55 57 -1,
        33 57 59 -1,
        33 59 62 -1,
        33 62 64 -1,
        33 64 66 -1,
        36 34 69 -1,
        36 70 35 -1,
        36 69 71 -1,
        35 32 36 -1,
        35 72 31 -1,
        34 73 69 -1,
        68 30 33 -1,
        68 67 74 -1,
        71 69 75 -1,
        71 76 70 -1,
        71 75 77 -1,
        70 36 71 -1,
        70 78 35 -1,
        69 79 75 -1,
        73 34 68 -1,
        73 74 80 -1,
        77 75 81 -1,
        77 82 76 -1,
        77 81 83 -1,
        76 71 77 -1,
        76 84 70 -1,
        75 85 81 -1,
        79 69 73 -1,
        79 80 86 -1,
        83 81 87 -1,
        83 88 82 -1,
        83 87 89 -1,
        82 77 83 -1,
        82 90 76 -1,
        81 91 87 -1,
        85 75 79 -1,
        85 86 92 -1,
        89 87 93 -1,
        89 94 88 -1,
        89 93 95 -1,
        88 83 89 -1,
        88 96 82 -1,
        87 97 93 -1,
        91 81 85 -1,
        91 92 98 -1,
        95 93 99 -1,
        95 100 94 -1,
        95 99 101 -1,
        94 89 95 -1,
        94 102 88 -1,
        93 103 99 -1,
        97 87 91 -1,
        97 98 104 -1,
        101 99 105 -1,
        101 106 100 -1,
        100 95 101 -1,
        100 107 94 -1,
        99 106 105 -1,
        103 93 97 -1,
        103 104 108 -1,
        106 101 105 -1,
        106 99 103 -1,
        106 109 100 -1,
        106 108 110 -1,
        111 72 112 -1,
        111 113 114 -1,
        112 78 115 -1,
        112 116 111 -1,
        114 37 72 -1,
        114 117 118 -1,
        115 84 119 -1,
        115 120 112 -1,
        118 39 37 -1,
        118 121 122 -1,
        119 90 123 -1,
        119 124 115 -1,
        122 41 39 -1,
        122 125 126 -1,
        123 96 127 -1,
        123 128 119 -1,
        123 129 130 -1,
        126 43 41 -1,
        127 102 131 -1,
        127 132 129 -1,
        133 46 43 -1,
        133 125 134 -1,
        131 107 135 -1,
        131 136 132 -1,
        137 48 46 -1,
        137 134 138 -1,
        135 109 139 -1,
        135 140 136 -1,
        141 50 48 -1,
        141 138 142 -1,
        72 35 78 -1,
        72 111 114 -1,
        78 70 84 -1,
        78 112 72 -1,
        37 31 72 -1,
        37 114 118 -1,
        84 76 90 -1,
        84 115 78 -1,
        39 38 37 -1,
        39 118 122 -1,
        90 82 96 -1,
        90 119 84 -1,
        41 40 39 -1,
        41 122 126 -1,
        96 88 102 -1,
        96 123 90 -1,
        43 42 41 -1,
        43 45 44 -1,
        43 126 133 -1,
        102 94 107 -1,
        102 127 96 -1,
        46 47 45 -1,
        46 133 137 -1,
        107 100 109 -1,
        107 131 102 -1,
        48 49 47 -1,
        48 137 141 -1,
        109 106 110 -1,
        109 135 107 -1,
        50 51 49 -1,
        50 141 143 -1,
        50 143 52 -1,
        139 109 110 -1,
        139 110 108 -1,
        139 108 144 -1,
        139 145 140 -1,
        52 53 51 -1,
        52 143 146 -1,
        52 146 54 -1,
        143 142 147 -1,
        108 106 103 -1,
        54 55 53 -1,
        54 146 56 -1,
        104 103 97 -1,
        104 148 144 -1,
        56 57 55 -1,
        56 149 58 -1,
        98 97 91 -1,
        98 150 148 -1,
        58 59 57 -1,
        58 151 60 -1,
        92 91 85 -1,
        92 152 150 -1,
        60 153 61 -1,
        86 85 79 -1,
        86 154 152 -1,
        61 59 60 -1,
        61 155 63 -1,
        80 79 73 -1,
        80 156 154 -1,
        63 62 61 -1,
        63 157 65 -1,
        74 73 68 -1,
        74 158 156 -1,
        65 64 63 -1,
        65 159 67 -1,
        67 66 65 -1,
        67 68 33 -1,
        67 160 158 -1,
        144 108 104 -1,
        144 161 145 -1,
        146 147 162 -1,
        148 104 98 -1,
        148 163 161 -1,
        149 56 146 -1,
        149 162 164 -1,
        150 98 92 -1,
        150 165 163 -1,
        151 58 149 -1,
        151 164 166 -1,
        152 92 86 -1,
        153 60 151 -1,
        153 166 167 -1,
        153 168 155 -1,
        154 86 80 -1,
        154 165 152 -1,
        155 61 153 -1,
        155 169 157 -1,
        156 80 74 -1,
        156 170 154 -1,
        157 63 155 -1,
        157 171 159 -1,
        158 74 67 -1,
        158 172 156 -1,
        159 65 157 -1,
        159 173 160 -1,
        160 67 159 -1,
        160 174 158 -1,
        116 112 120 -1,
        116 175 113 -1,
        120 115 124 -1,
        120 176 175 -1,
        113 111 116 -1,
        113 177 117 -1,
        124 119 128 -1,
        124 178 176 -1,
        117 114 113 -1,
        117 179 121 -1,
        128 123 130 -1,
        128 180 178 -1,
        121 118 117 -1,
        121 181 125 -1,
        130 182 180 -1,
        125 122 121 -1,
        125 133 126 -1,
        125 183 134 -1,
        129 123 127 -1,
        129 184 182 -1,
        134 137 133 -1,
        134 185 138 -1,
        132 127 131 -1,
        132 186 184 -1,
        138 141 137 -1,
        138 187 142 -1,
        136 131 135 -1,
        136 188 186 -1,
        142 143 141 -1,
        142 189 147 -1,
        175 116 120 -1,
        175 190 191 -1,
        175 192 177 -1,
        176 120 124 -1,
        176 193 190 -1,
        177 113 175 -1,
        177 194 179 -1,
        178 124 128 -1,
        178 195 193 -1,
        179 117 177 -1,
        179 196 181 -1,
        180 128 130 -1,
        180 197 195 -1,
        181 121 179 -1,
        181 198 183 -1,
        182 130 129 -1,
        182 199 197 -1,
        183 125 181 -1,
        184 129 132 -1,
        184 200 199 -1,
        185 134 183 -1,
        185 198 201 -1,
        186 132 136 -1,
        186 202 200 -1,
        187 138 185 -1,
        187 201 203 -1,
        188 136 140 -1,
        188 140 204 -1,
        188 205 202 -1,
        189 142 187 -1,
        189 203 206 -1,
        140 135 139 -1,
        204 140 145 -1,
        204 145 207 -1,
        208 206 209 -1,
        147 146 143 -1,
        147 189 208 -1,
        147 208 210 -1,
        147 210 162 -1,
        207 145 211 -1,
        207 205 204 -1,
        210 209 212 -1,
        211 161 213 -1,
        211 214 207 -1,
        215 164 162 -1,
        215 212 216 -1,
        213 163 217 -1,
        213 218 211 -1,
        219 166 164 -1,
        219 216 220 -1,
        217 165 221 -1,
        217 222 213 -1,
        223 167 166 -1,
        223 220 224 -1,
        223 225 226 -1,
        221 170 227 -1,
        221 228 217 -1,
        226 168 167 -1,
        226 229 230 -1,
        227 172 231 -1,
        227 232 221 -1,
        230 169 168 -1,
        230 233 234 -1,
        231 174 235 -1,
        231 236 227 -1,
        234 171 169 -1,
        234 237 235 -1,
        235 173 171 -1,
        235 238 231 -1,
        145 139 144 -1,
        162 149 146 -1,
        162 210 215 -1,
        161 144 148 -1,
        161 211 145 -1,
        164 151 149 -1,
        164 215 219 -1,
        163 148 150 -1,
        163 213 161 -1,
        166 153 151 -1,
        166 219 223 -1,
        165 150 152 -1,
        165 154 170 -1,
        165 217 163 -1,
        167 223 226 -1,
        170 156 172 -1,
        170 221 165 -1,
        168 153 167 -1,
        168 226 230 -1,
        172 158 174 -1,
        172 227 170 -1,
        169 155 168 -1,
        169 230 234 -1,
        174 160 173 -1,
        174 231 172 -1,
        171 157 169 -1,
        171 234 235 -1,
        173 159 171 -1,
        173 235 174 -1,
        205 188 204 -1,
        205 207 214 -1,
        205 239 202 -1,
        205 240 241 -1,
        239 205 241 -1,
        239 240 242 -1,
        239 242 243 -1,
        202 186 188 -1,
        202 243 200 -1,
        240 205 214 -1,
        240 239 241 -1,
        214 211 218 -1,
        214 242 240 -1,
        243 202 239 -1,
        243 242 244 -1,
        243 244 245 -1,
        200 184 186 -1,
        200 245 199 -1,
        242 214 218 -1,
        218 213 222 -1,
        218 244 242 -1,
        245 200 243 -1,
        245 244 246 -1,
        245 246 247 -1,
        199 182 184 -1,
        199 247 197 -1,
        244 218 222 -1,
        222 217 228 -1,
        222 246 244 -1,
        247 199 245 -1,
        247 246 248 -1,
        247 248 249 -1,
        197 180 182 -1,
        197 249 195 -1,
        246 222 228 -1,
        228 221 232 -1,
        228 248 246 -1,
        249 197 247 -1,
        249 248 250 -1,
        249 250 251 -1,
        195 178 180 -1,
        195 251 193 -1,
        248 228 232 -1,
        232 227 236 -1,
        232 250 248 -1,
        251 195 249 -1,
        251 250 252 -1,
        251 252 253 -1,
        193 176 178 -1,
        193 253 190 -1,
        250 232 236 -1,
        236 231 238 -1,
        236 252 250 -1,
        253 193 251 -1,
        253 252 254 -1,
        253 254 255 -1,
        190 175 176 -1,
        190 255 191 -1,
        252 236 238 -1,
        238 235 237 -1,
        238 254 252 -1,
        255 190 253 -1,
        255 254 256 -1,
        255 257 191 -1,
        255 256 258 -1,
        192 175 191 -1,
        192 237 194 -1,
        194 177 192 -1,
        194 237 196 -1,
        196 179 194 -1,
        196 237 198 -1,
        198 181 196 -1,
        198 185 183 -1,
        198 237 201 -1,
        201 187 185 -1,
        201 237 203 -1,
        203 189 187 -1,
        203 237 206 -1,
        206 208 189 -1,
        206 237 209 -1,
        209 210 208 -1,
        209 237 212 -1,
        212 215 210 -1,
        212 237 216 -1,
        216 219 215 -1,
        216 237 220 -1,
        220 223 219 -1,
        220 237 224 -1,
        224 237 225 -1,
        225 223 224 -1,
        225 237 229 -1,
        229 226 225 -1,
        229 237 233 -1,
        233 230 229 -1,
        254 238 237 -1,
        237 234 233 -1,
        237 192 191 -1,
        237 257 259 -1,
        237 256 254 -1,
        258 256 260 -1,
        258 261 257 -1,
        258 260 262 -1,
        257 255 258 -1,
        257 237 191 -1,
        256 237 259 -1,
        259 257 261 -1,
        259 261 263 -1,
        259 260 256 -1,
        262 260 264 -1,
        262 265 261 -1,
        262 264 266 -1,
        261 258 262 -1,
        260 259 263 -1,
        263 261 265 -1,
        263 265 267 -1,
        263 264 260 -1,
        266 264 268 -1,
        266 269 265 -1,
        266 268 270 -1,
        265 262 266 -1,
        264 263 267 -1,
        267 265 269 -1,
        267 269 271 -1,
        267 268 264 -1,
        270 268 272 -1,
        270 272 273 -1,
        269 266 270 -1,
        269 273 274 -1,
        268 267 271 -1,
        268 275 272 -1,
        271 269 274 -1,
        271 274 275 -1,
        273 269 270 -1,
        273 272 276 -1,
        273 276 277 -1,
        274 277 278 -1,
        272 279 276 -1,
        275 268 271 -1,
        275 274 278 -1,
        275 278 279 -1,
        277 274 273 -1,
        277 276 280 -1,
        277 280 281 -1,
        278 281 282 -1,
        276 283 280 -1,
        279 272 275 -1,
        279 278 282 -1,
        279 282 283 -1,
        281 278 277 -1,
        281 280 284 -1,
        282 284 285 -1,
        280 285 284 -1,
        283 276 279 -1,
        283 282 285 -1,
        284 282 281 -1,
        285 280 283 -1
    ]
  }
}
