#VRML V2.0 utf8
# Generated from models/supercap_kemet_fcs.scad by tools/gen_3d.ts (OpenSCAD -> STL -> VRML).
# Coordinates are millimetres divided by 2.54, the unit KiCad expects.

Shape {
  appearance Appearance {
    material Material {
      diffuseColor 0.2 0.2 0.22
      specularColor 0.1 0.1 0.1
      ambientIntensity 0.3
      shininess 0.2
    }
  }
  geometry IndexedFaceSet {
    solid TRUE
    creaseAngle 0.7
    coord Coordinate {
      point [
        -2.913386 -0.492126 0.000000,
        -2.913386 0.492126 0.118110,
        -2.913386 0.492126 0.000000,
        -2.045075 -0.492126 0.118110,
        -2.913386 -0.492126 0.118110,
        -0.984252 0.492126 0.000000,
        -0.984252 -0.492126 0.000000,
        -2.106299 0.000000 0.118110,
        -2.045075 0.492126 0.118110,
        -2.088280 0.274927 0.118110,
        -2.088280 -0.274927 0.118110,
        -2.088280 0.274927 2.165354,
        -2.106299 0.000000 2.165354,
        -2.088280 -0.274927 2.165354,
        -2.034528 -0.545150 2.165354,
        -2.034528 0.545150 2.165354,
        -0.984252 -0.492126 0.118110,
        -2.034528 0.545150 0.118110,
        -2.034528 -0.545150 0.118110,
        -1.945965 -0.806047 0.118110,
        -1.945965 -0.806047 2.165354,
        -1.945965 0.806047 2.165354,
        -1.945965 0.806047 0.118110,
        -0.984252 0.492126 0.118110,
        -1.824106 -1.053150 0.118110,
        -1.824106 -1.053150 2.165354,
        -1.824106 1.053150 2.165354,
        -1.824106 1.053150 0.118110,
        -1.671039 -1.282232 0.118110,
        -1.671039 -1.282232 2.165354,
        -1.671039 1.282232 2.165354,
        -1.671039 1.282232 0.118110,
        -1.489378 -1.489378 0.118110,
        -1.489378 -1.489378 2.165354,
        -1.489378 1.489378 2.165354,
        -1.489378 1.489378 0.118110,
        -1.282232 -1.671039 2.165354,
        -1.282232 -1.671039 0.118110,
        -1.282232 1.671039 2.165354,
        -1.282232 1.671039 0.118110,
        -1.053150 -1.824106 2.165354,
        -1.053150 -1.824106 0.118110,
        -1.053150 1.824106 2.165354,
        -1.053150 1.824106 0.118110,
        -0.806047 -1.945965 0.118110,
        -0.806047 -1.945965 2.165354,
        -0.806047 1.945965 2.165354,
        -0.806047 1.945965 0.118110,
        -0.545150 -2.034528 0.118110,
        -0.274927 -2.088280 0.118110,
        0.000000 -2.106299 0.118110,
        0.984252 0.492126 0.118110,
        -0.545150 -2.034528 2.165354,
        -0.545150 2.034528 2.165354,
        -0.545150 2.034528 0.118110,
        -0.274927 -2.088280 2.165354,
        -0.274927 2.088280 2.165354,
        -0.274927 2.088280 0.118110,
        0.000000 -2.106299 2.165354,
        0.000000 2.106299 2.165354,
        0.000000 2.106299 0.118110,
        0.274927 -2.088280 2.165354,
        0.984252 -0.492126 0.118110,
        0.274927 -2.088280 0.118110,
        0.274927 2.088280 2.165354,
        0.274927 2.088280 0.118110,
        0.545150 -2.034528 2.165354,
        0.545150 -2.034528 0.118110,
        0.545150 2.034528 2.165354,
        0.545150 2.034528 0.118110,
        0.806047 -1.945965 2.165354,
        0.806047 -1.945965 0.118110,
        0.806047 1.945965 2.165354,
        0.806047 1.945965 0.118110,
        1.053150 -1.824106 0.118110,
        1.053150 -1.824106 2.165354,
        1.053150 1.824106 2.165354,
        1.053150 1.824106 0.118110,
        0.984252 -0.492126 0.000000,
        0.984252 0.492126 0.000000,
        2.045075 -0.492126 0.118110,
        2.913386 0.492126 0.000000,
        2.913386 -0.492126 0.000000,
        1.282232 -1.671039 0.118110,
        1.489378 -1.489378 0.118110,
        1.671039 -1.282232 0.118110,
        1.824106 -1.053150 0.118110,
        1.945965 -0.806047 0.118110,
        2.034528 -0.545150 0.118110,
        2.045075 0.492126 0.118110,
        2.034528 0.545150 0.118110,
        1.282232 -1.671039 2.165354,
        1.282232 1.671039 2.165354,
        1.282232 1.671039 0.118110,
        1.489378 -1.489378 2.165354,
        1.489378 1.489378 2.165354,
        1.489378 1.489378 0.118110,
        1.671039 -1.282232 2.165354,
        1.671039 1.282232 2.165354,
        1.671039 1.282232 0.118110,
        1.824106 -1.053150 2.165354,
        1.824106 1.053150 2.165354,
        1.824106 1.053150 0.118110,
        1.945965 -0.806047 2.165354,
        1.945965 0.806047 2.165354,
        1.945965 0.806047 0.118110,
        2.034528 -0.545150 2.165354,
        2.034528 0.545150 2.165354,
        2.088280 -0.274927 2.165354,
        2.088280 0.274927 2.165354,
        2.913386 -0.492126 0.118110,
        2.088280 0.274927 0.118110,
        2.088280 -0.274927 0.118110,
        2.106299 0.000000 0.118110,
        2.106299 0.000000 2.165354,
        2.913386 0.492126 0.118110
      ]
    }
    coordIndex [
        0 1 2 -1,
        0 3 4 -1,
        0 5 6 -1,
        4 7 1 -1,
        2 8 5 -1,
        1 0 4 -1,
        1 9 8 -1,
        7 4 10 -1,
        7 11 9 -1,
        12 10 13 -1,
        10 4 3 -1,
        10 12 7 -1,
        13 11 12 -1,
        9 1 7 -1,
        11 7 12 -1,
        11 13 14 -1,
        11 8 9 -1,
        11 14 15 -1,
        3 13 10 -1,
        3 14 13 -1,
        3 6 16 -1,
        8 2 1 -1,
        8 11 15 -1,
        8 15 17 -1,
        18 16 19 -1,
        14 3 18 -1,
        14 19 20 -1,
        17 21 22 -1,
        17 23 8 -1,
        15 14 20 -1,
        15 20 21 -1,
        19 14 18 -1,
        19 16 24 -1,
        20 24 25 -1,
        22 26 27 -1,
        21 17 15 -1,
        21 20 25 -1,
        21 25 26 -1,
        24 20 19 -1,
        24 16 28 -1,
        25 28 29 -1,
        27 30 31 -1,
        26 22 21 -1,
        26 25 29 -1,
        26 29 30 -1,
        28 25 24 -1,
        28 16 32 -1,
        29 32 33 -1,
        31 34 35 -1,
        30 27 26 -1,
        30 29 33 -1,
        30 33 34 -1,
        32 29 28 -1,
        32 36 33 -1,
        32 16 37 -1,
        34 31 30 -1,
        34 33 36 -1,
        34 36 38 -1,
        34 39 35 -1,
        37 40 36 -1,
        37 16 41 -1,
        36 32 37 -1,
        39 34 38 -1,
        38 36 40 -1,
        38 40 42 -1,
        38 43 39 -1,
        41 16 44 -1,
        41 45 40 -1,
        40 37 41 -1,
        43 38 42 -1,
        42 40 45 -1,
        42 45 46 -1,
        42 47 43 -1,
        6 3 0 -1,
        16 18 3 -1,
        16 5 23 -1,
        16 48 44 -1,
        16 49 48 -1,
        16 50 49 -1,
        5 0 2 -1,
        5 8 23 -1,
        5 16 6 -1,
        23 17 22 -1,
        23 22 27 -1,
        23 27 31 -1,
        23 31 35 -1,
        23 35 39 -1,
        23 39 43 -1,
        23 43 47 -1,
        23 51 16 -1,
        44 52 45 -1,
        45 41 44 -1,
        47 42 46 -1,
        46 45 52 -1,
        46 52 53 -1,
        46 54 47 -1,
        48 55 52 -1,
        52 44 48 -1,
        54 23 47 -1,
        54 46 53 -1,
        53 52 55 -1,
        53 55 56 -1,
        53 57 54 -1,
        49 58 55 -1,
        55 48 49 -1,
        57 23 54 -1,
        57 53 56 -1,
        56 55 58 -1,
        56 58 59 -1,
        56 60 57 -1,
        50 61 58 -1,
        50 62 63 -1,
        58 49 50 -1,
        60 23 57 -1,
        60 56 59 -1,
        60 51 23 -1,
        59 58 61 -1,
        59 61 64 -1,
        59 65 60 -1,
        63 66 61 -1,
        63 62 67 -1,
        61 50 63 -1,
        65 59 64 -1,
        64 61 66 -1,
        64 66 68 -1,
        64 69 65 -1,
        67 70 66 -1,
        67 62 71 -1,
        66 63 67 -1,
        69 64 68 -1,
        68 66 70 -1,
        68 70 72 -1,
        68 73 69 -1,
        71 62 74 -1,
        71 75 70 -1,
        70 67 71 -1,
        73 68 72 -1,
        72 70 75 -1,
        72 75 76 -1,
        72 77 73 -1,
        78 51 79 -1,
        78 80 62 -1,
        78 81 82 -1,
        62 16 51 -1,
        62 50 16 -1,
        62 83 74 -1,
        62 84 83 -1,
        62 85 84 -1,
        62 86 85 -1,
        62 87 86 -1,
        62 88 87 -1,
        79 89 81 -1,
        51 60 65 -1,
        51 65 69 -1,
        51 69 73 -1,
        51 73 77 -1,
        51 78 62 -1,
        51 90 89 -1,
        74 91 75 -1,
        75 71 74 -1,
        77 72 76 -1,
        76 75 91 -1,
        76 91 92 -1,
        76 93 77 -1,
        83 94 91 -1,
        91 74 83 -1,
        93 51 77 -1,
        93 76 92 -1,
        92 91 94 -1,
        92 94 95 -1,
        92 96 93 -1,
        94 83 84 -1,
        94 85 97 -1,
        96 51 93 -1,
        96 92 95 -1,
        96 98 99 -1,
        95 94 97 -1,
        95 97 98 -1,
        85 94 84 -1,
        97 86 100 -1,
        99 51 96 -1,
        99 101 102 -1,
        98 96 95 -1,
        98 97 100 -1,
        98 100 101 -1,
        86 97 85 -1,
        100 87 103 -1,
        102 51 99 -1,
        102 104 105 -1,
        101 99 98 -1,
        101 100 103 -1,
        101 103 104 -1,
        87 100 86 -1,
        103 88 106 -1,
        105 51 102 -1,
        105 107 90 -1,
        104 102 101 -1,
        104 103 106 -1,
        104 106 107 -1,
        88 62 80 -1,
        88 103 87 -1,
        106 80 108 -1,
        90 51 105 -1,
        107 105 104 -1,
        107 106 108 -1,
        107 89 90 -1,
        107 108 109 -1,
        80 106 88 -1,
        80 82 110 -1,
        89 79 51 -1,
        89 109 111 -1,
        112 110 113 -1,
        108 80 112 -1,
        108 113 114 -1,
        111 114 113 -1,
        111 115 89 -1,
        109 89 107 -1,
        109 108 114 -1,
        113 108 112 -1,
        114 111 109 -1,
        82 80 78 -1,
        110 112 80 -1,
        110 81 115 -1,
        81 78 79 -1,
        81 89 115 -1,
        81 110 82 -1,
        115 111 113 -1,
        115 113 110 -1
    ]
  }
}
