ISO-10303-21;
HEADER;
FILE_DESCRIPTION(('FreeCAD Model'),'2;1');
FILE_NAME('Open CASCADE Shape Model','2026-09-10T22:05:25',(''),(''),
  'Open CASCADE STEP processor 7.8','FreeCAD','Unknown');
FILE_SCHEMA(('AUTOMOTIVE_DESIGN { 1 0 10303 214 1 1 1 1 }'));
ENDSEC;
DATA;
#1 = APPLICATION_PROTOCOL_DEFINITION('international standard',
  'automotive_design',2000,#2);
#2 = APPLICATION_CONTEXT(
  'core data for automotive mechanical design processes');
#3 = SHAPE_DEFINITION_REPRESENTATION(#4,#10);
#4 = PRODUCT_DEFINITION_SHAPE('','',#5);
#5 = PRODUCT_DEFINITION('design','',#6,#9);
#6 = PRODUCT_DEFINITION_FORMATION('','',#7);
#7 = PRODUCT('Unnamed','Unnamed','',(#8));
#8 = PRODUCT_CONTEXT('',#2,'mechanical');
#9 = PRODUCT_DEFINITION_CONTEXT('part definition',#2,'design');
#10 = SHAPE_REPRESENTATION('',(#11,#15,#19,#23),#27);
#11 = AXIS2_PLACEMENT_3D('',#12,#13,#14);
#12 = CARTESIAN_POINT('',(0.,0.,0.));
#13 = DIRECTION('',(0.,0.,1.));
#14 = DIRECTION('',(1.,0.,-0.));
#15 = AXIS2_PLACEMENT_3D('',#16,#17,#18);
#16 = CARTESIAN_POINT('',(0.,0.,0.));
#17 = DIRECTION('',(0.,0.,1.));
#18 = DIRECTION('',(1.,0.,0.));
#19 = AXIS2_PLACEMENT_3D('',#20,#21,#22);
#20 = CARTESIAN_POINT('',(0.,0.,0.));
#21 = DIRECTION('',(0.,0.,1.));
#22 = DIRECTION('',(1.,0.,0.));
#23 = AXIS2_PLACEMENT_3D('',#24,#25,#26);
#24 = CARTESIAN_POINT('',(0.,0.,0.));
#25 = DIRECTION('',(0.,0.,1.));
#26 = DIRECTION('',(1.,0.,0.));
#27 = ( GEOMETRIC_REPRESENTATION_CONTEXT(3) 
GLOBAL_UNCERTAINTY_ASSIGNED_CONTEXT((#31)) GLOBAL_UNIT_ASSIGNED_CONTEXT(
(#28,#29,#30)) REPRESENTATION_CONTEXT('Context #1',
  '3D Context with UNIT and UNCERTAINTY') );
#28 = ( LENGTH_UNIT() NAMED_UNIT(*) SI_UNIT(.MILLI.,.METRE.) );
#29 = ( NAMED_UNIT(*) PLANE_ANGLE_UNIT() SI_UNIT($,.RADIAN.) );
#30 = ( NAMED_UNIT(*) SI_UNIT($,.STERADIAN.) SOLID_ANGLE_UNIT() );
#31 = UNCERTAINTY_MEASURE_WITH_UNIT(LENGTH_MEASURE(1.E-06),#28,
  'distance_accuracy_value','confusion accuracy');
#32 = PRODUCT_RELATED_PRODUCT_CATEGORY('part',$,(#7));
#33 = SHAPE_DEFINITION_REPRESENTATION(#34,#40);
#34 = PRODUCT_DEFINITION_SHAPE('','',#35);
#35 = PRODUCT_DEFINITION('design','',#36,#39);
#36 = PRODUCT_DEFINITION_FORMATION('','',#37);
#37 = PRODUCT('Fillet','Fillet','',(#38));
#38 = PRODUCT_CONTEXT('',#2,'mechanical');
#39 = PRODUCT_DEFINITION_CONTEXT('part definition',#2,'design');
#40 = ADVANCED_BREP_SHAPE_REPRESENTATION('',(#11,#41),#747);
#41 = MANIFOLD_SOLID_BREP('',#42);
#42 = CLOSED_SHELL('',(#43,#95,#234,#284,#334,#380,#411,#442,#492,#542,
    #561,#578,#595,#632,#661,#690,#707,#724));
#43 = ADVANCED_FACE('',(#44),#90,.T.);
#44 = FACE_BOUND('',#45,.T.);
#45 = EDGE_LOOP('',(#46,#56,#69,#79));
#46 = ORIENTED_EDGE('',*,*,#47,.T.);
#47 = EDGE_CURVE('',#48,#50,#52,.T.);
#48 = VERTEX_POINT('',#49);
#49 = CARTESIAN_POINT('',(-3.50030458649,-4.,1.));
#50 = VERTEX_POINT('',#51);
#51 = CARTESIAN_POINT('',(3.50030458649,-4.,1.));
#52 = LINE('',#53,#54);
#53 = CARTESIAN_POINT('',(-4.,-4.,1.));
#54 = VECTOR('',#55,1.);
#55 = DIRECTION('',(1.,0.,0.));
#56 = ORIENTED_EDGE('',*,*,#57,.T.);
#57 = EDGE_CURVE('',#50,#58,#60,.T.);
#58 = VERTEX_POINT('',#59);
#59 = CARTESIAN_POINT('',(3.314615149544,-3.814310563054,6.317449748351)
  );
#60 = B_SPLINE_CURVE_WITH_KNOTS('',3,(#61,#62,#63,#64,#65,#66,#67,#68),
  .UNSPECIFIED.,.F.,.F.,(4,2,2,4),(-0.266885568849,1.742850792355E-02,
    5.824497069457,6.108811146229),.UNSPECIFIED.);
#61 = CARTESIAN_POINT('',(3.510220967561,-4.009916381071,0.716032));
#62 = CARTESIAN_POINT('',(3.506915507204,-4.006610920714,0.810688));
#63 = CARTESIAN_POINT('',(3.503610046847,-4.003305460357,0.905344));
#64 = CARTESIAN_POINT('',(3.432791098806,-3.932486512316,2.933333333333)
  );
#65 = CARTESIAN_POINT('',(3.365277611122,-3.864973024632,4.866666666667)
  );
#66 = CARTESIAN_POINT('',(3.294458663081,-3.794154076591,6.894656));
#67 = CARTESIAN_POINT('',(3.291153202724,-3.790848616234,6.989312));
#68 = CARTESIAN_POINT('',(3.287847742367,-3.787543155877,7.083968));
#69 = ORIENTED_EDGE('',*,*,#70,.F.);
#70 = EDGE_CURVE('',#71,#58,#73,.T.);
#71 = VERTEX_POINT('',#72);
#72 = CARTESIAN_POINT('',(-3.314615170749,-3.814310563054,6.317449748351
    ));
#73 = B_SPLINE_CURVE_WITH_KNOTS('',2,(#74,#75,#76,#77,#78),
  .UNSPECIFIED.,.F.,.F.,(3,1,1,3),(-0.295736454499,-1.685102610601E-02,
    7.611770100002,7.890655528395),.UNSPECIFIED.);
#74 = CARTESIAN_POINT('',(-4.093195991447,-3.814310563054,6.317449748351
    ));
#75 = CARTESIAN_POINT('',(-3.953753277251,-3.814310563054,6.317449748351
    ));
#76 = CARTESIAN_POINT('',(-4.440892098501E-16,-3.814310563054,
    6.317449748351));
#77 = CARTESIAN_POINT('',(3.953753277251,-3.814310563054,6.317449748351)
  );
#78 = CARTESIAN_POINT('',(4.093195991447,-3.814310563054,6.317449748351)
  );
#79 = ORIENTED_EDGE('',*,*,#80,.F.);
#80 = EDGE_CURVE('',#48,#71,#81,.T.);
#81 = B_SPLINE_CURVE_WITH_KNOTS('',3,(#82,#83,#84,#85,#86,#87,#88,#89),
  .UNSPECIFIED.,.F.,.F.,(4,2,2,4),(-0.266885568849,1.742850792355E-02,
    5.824497069457,6.108811146229),.UNSPECIFIED.);
#82 = CARTESIAN_POINT('',(-3.510220967561,-4.009916381071,0.716032));
#83 = CARTESIAN_POINT('',(-3.506915507204,-4.006610920714,0.810688));
#84 = CARTESIAN_POINT('',(-3.503610046847,-4.003305460357,0.905344));
#85 = CARTESIAN_POINT('',(-3.432791098806,-3.932486512316,2.933333333333
    ));
#86 = CARTESIAN_POINT('',(-3.365277611122,-3.864973024632,4.866666666667
    ));
#87 = CARTESIAN_POINT('',(-3.294458663081,-3.794154076591,6.894656));
#88 = CARTESIAN_POINT('',(-3.291153202724,-3.790848616234,6.989312));
#89 = CARTESIAN_POINT('',(-3.287847742367,-3.787543155877,7.083968));
#90 = B_SPLINE_SURFACE_WITH_KNOTS('',1,1,(
    (#91,#92)
    ,(#93,#94)),.UNSPECIFIED.,.F.,.F.,.F.,(2,2),(2,2),(0.,8.),(0.,1.),
  .PIECEWISE_BEZIER_KNOTS.);
#91 = CARTESIAN_POINT('',(-4.,-4.,1.));
#92 = CARTESIAN_POINT('',(-3.797459536948,-3.797459536948,6.8));
#93 = CARTESIAN_POINT('',(4.,-4.,1.));
#94 = CARTESIAN_POINT('',(3.797459536948,-3.797459536948,6.8));
#95 = ADVANCED_FACE('',(#96),#229,.T.);
#96 = FACE_BOUND('',#97,.T.);
#97 = EDGE_LOOP('',(#98,#99,#126,#134,#161,#169,#196,#204));
#98 = ORIENTED_EDGE('',*,*,#47,.F.);
#99 = ORIENTED_EDGE('',*,*,#100,.T.);
#100 = EDGE_CURVE('',#48,#101,#103,.T.);
#101 = VERTEX_POINT('',#102);
#102 = CARTESIAN_POINT('',(-4.,-3.50030458649,1.));
#103 = B_SPLINE_CURVE_WITH_KNOTS('',6,(#104,#105,#106,#107,#108,#109,
    #110,#111,#112,#113,#114,#115,#116,#117,#118,#119,#120,#121,#122,
    #123,#124,#125),.UNSPECIFIED.,.F.,.F.,(7,5,5,5,7),(0.,0.249189064507
    ,0.499999995052,0.750176878249,1.),.UNSPECIFIED.);
#104 = CARTESIAN_POINT('',(-3.50030458649,-4.,1.));
#105 = CARTESIAN_POINT('',(-3.529721910383,-4.,1.));
#106 = CARTESIAN_POINT('',(-3.559983383532,-3.997924290567,1.));
#107 = CARTESIAN_POINT('',(-3.5908597637,-3.993549270008,1.));
#108 = CARTESIAN_POINT('',(-3.622048117585,-3.986681821108,1.));
#109 = CARTESIAN_POINT('',(-3.653171551878,-3.977204574315,1.));
#110 = CARTESIAN_POINT('',(-3.71468613996,-3.952930380691,1.));
#111 = CARTESIAN_POINT('',(-3.745071412092,-3.938099020127,1.));
#112 = CARTESIAN_POINT('',(-3.774576269011,-3.920601516971,1.));
#113 = CARTESIAN_POINT('',(-3.802765522193,-3.90053329389,1.));
#114 = CARTESIAN_POINT('',(-3.829237607893,-3.878121392043,1.));
#115 = CARTESIAN_POINT('',(-3.878059598307,-3.829299402357,1.));
#116 = CARTESIAN_POINT('',(-3.900419961262,-3.802899357324,1.));
#117 = CARTESIAN_POINT('',(-3.92044927058,-3.77479003298,1.));
#118 = CARTESIAN_POINT('',(-3.937921983373,-3.745369717986,1.));
#119 = CARTESIAN_POINT('',(-3.952742739294,-3.715070159955,1.));
#120 = CARTESIAN_POINT('',(-3.977083832329,-3.653567514358,1.));
#121 = CARTESIAN_POINT('',(-3.986611825148,-3.622365564419,1.));
#122 = CARTESIAN_POINT('',(-3.993515830686,-3.591095470976,1.));
#123 = CARTESIAN_POINT('',(-3.997913713117,-3.560137389456,1.));
#124 = CARTESIAN_POINT('',(-4.,-3.529796762027,1.));
#125 = CARTESIAN_POINT('',(-4.,-3.50030458649,1.));
#126 = ORIENTED_EDGE('',*,*,#127,.F.);
#127 = EDGE_CURVE('',#128,#101,#130,.T.);
#128 = VERTEX_POINT('',#129);
#129 = CARTESIAN_POINT('',(-4.,3.50030458649,1.));
#130 = LINE('',#131,#132);
#131 = CARTESIAN_POINT('',(-4.,4.,1.));
#132 = VECTOR('',#133,1.);
#133 = DIRECTION('',(0.,-1.,0.));
#134 = ORIENTED_EDGE('',*,*,#135,.F.);
#135 = EDGE_CURVE('',#136,#128,#138,.T.);
#136 = VERTEX_POINT('',#137);
#137 = CARTESIAN_POINT('',(-3.50030458649,4.,1.));
#138 = B_SPLINE_CURVE_WITH_KNOTS('',6,(#139,#140,#141,#142,#143,#144,
    #145,#146,#147,#148,#149,#150,#151,#152,#153,#154,#155,#156,#157,
    #158,#159,#160),.UNSPECIFIED.,.F.,.F.,(7,5,5,5,7),(0.,0.249189064507
    ,0.499999995052,0.750176878249,1.),.UNSPECIFIED.);
#139 = CARTESIAN_POINT('',(-3.50030458649,4.,1.));
#140 = CARTESIAN_POINT('',(-3.529721910383,4.,1.));
#141 = CARTESIAN_POINT('',(-3.559983383532,3.997924290567,1.));
#142 = CARTESIAN_POINT('',(-3.5908597637,3.993549270008,1.));
#143 = CARTESIAN_POINT('',(-3.622048117585,3.986681821108,1.));
#144 = CARTESIAN_POINT('',(-3.653171551878,3.977204574315,1.));
#145 = CARTESIAN_POINT('',(-3.71468613996,3.952930380691,1.));
#146 = CARTESIAN_POINT('',(-3.745071412092,3.938099020127,1.));
#147 = CARTESIAN_POINT('',(-3.774576269011,3.920601516971,1.));
#148 = CARTESIAN_POINT('',(-3.802765522193,3.90053329389,1.));
#149 = CARTESIAN_POINT('',(-3.829237607893,3.878121392043,1.));
#150 = CARTESIAN_POINT('',(-3.878059598307,3.829299402357,1.));
#151 = CARTESIAN_POINT('',(-3.900419961262,3.802899357324,1.));
#152 = CARTESIAN_POINT('',(-3.92044927058,3.77479003298,1.));
#153 = CARTESIAN_POINT('',(-3.937921983373,3.745369717986,1.));
#154 = CARTESIAN_POINT('',(-3.952742739294,3.715070159955,1.));
#155 = CARTESIAN_POINT('',(-3.977083832329,3.653567514358,1.));
#156 = CARTESIAN_POINT('',(-3.986611825148,3.622365564419,1.));
#157 = CARTESIAN_POINT('',(-3.993515830686,3.591095470976,1.));
#158 = CARTESIAN_POINT('',(-3.997913713117,3.560137389456,1.));
#159 = CARTESIAN_POINT('',(-4.,3.529796762027,1.));
#160 = CARTESIAN_POINT('',(-4.,3.50030458649,1.));
#161 = ORIENTED_EDGE('',*,*,#162,.F.);
#162 = EDGE_CURVE('',#163,#136,#165,.T.);
#163 = VERTEX_POINT('',#164);
#164 = CARTESIAN_POINT('',(3.50030458649,4.,1.));
#165 = LINE('',#166,#167);
#166 = CARTESIAN_POINT('',(4.,4.,1.));
#167 = VECTOR('',#168,1.);
#168 = DIRECTION('',(-1.,0.,0.));
#169 = ORIENTED_EDGE('',*,*,#170,.F.);
#170 = EDGE_CURVE('',#171,#163,#173,.T.);
#171 = VERTEX_POINT('',#172);
#172 = CARTESIAN_POINT('',(4.,3.50030458649,1.));
#173 = B_SPLINE_CURVE_WITH_KNOTS('',6,(#174,#175,#176,#177,#178,#179,
    #180,#181,#182,#183,#184,#185,#186,#187,#188,#189,#190,#191,#192,
    #193,#194,#195),.UNSPECIFIED.,.F.,.F.,(7,5,5,5,7),(0.,0.249189064508
    ,0.499999995052,0.750176878249,1.),.UNSPECIFIED.);
#174 = CARTESIAN_POINT('',(4.,3.50030458649,1.));
#175 = CARTESIAN_POINT('',(4.,3.529721910383,1.));
#176 = CARTESIAN_POINT('',(3.997924290567,3.559983383532,1.));
#177 = CARTESIAN_POINT('',(3.993549270008,3.5908597637,1.));
#178 = CARTESIAN_POINT('',(3.986681821108,3.622048117585,1.));
#179 = CARTESIAN_POINT('',(3.977204574315,3.653171551878,1.));
#180 = CARTESIAN_POINT('',(3.952930380691,3.71468613996,1.));
#181 = CARTESIAN_POINT('',(3.938099020127,3.745071412092,1.));
#182 = CARTESIAN_POINT('',(3.920601516971,3.774576269011,1.));
#183 = CARTESIAN_POINT('',(3.900533293889,3.802765522193,1.));
#184 = CARTESIAN_POINT('',(3.878121392043,3.829237607893,1.));
#185 = CARTESIAN_POINT('',(3.829299402357,3.878059598307,1.));
#186 = CARTESIAN_POINT('',(3.802899357324,3.900419961262,1.));
#187 = CARTESIAN_POINT('',(3.77479003298,3.92044927058,1.));
#188 = CARTESIAN_POINT('',(3.745369717986,3.937921983373,1.));
#189 = CARTESIAN_POINT('',(3.715070159955,3.952742739294,1.));
#190 = CARTESIAN_POINT('',(3.653567514358,3.977083832329,1.));
#191 = CARTESIAN_POINT('',(3.622365564419,3.986611825148,1.));
#192 = CARTESIAN_POINT('',(3.591095470976,3.993515830686,1.));
#193 = CARTESIAN_POINT('',(3.560137389456,3.997913713117,1.));
#194 = CARTESIAN_POINT('',(3.529796762027,4.,1.));
#195 = CARTESIAN_POINT('',(3.50030458649,4.,1.));
#196 = ORIENTED_EDGE('',*,*,#197,.F.);
#197 = EDGE_CURVE('',#198,#171,#200,.T.);
#198 = VERTEX_POINT('',#199);
#199 = CARTESIAN_POINT('',(4.,-3.50030458649,1.));
#200 = LINE('',#201,#202);
#201 = CARTESIAN_POINT('',(4.,-4.,1.));
#202 = VECTOR('',#203,1.);
#203 = DIRECTION('',(0.,1.,0.));
#204 = ORIENTED_EDGE('',*,*,#205,.F.);
#205 = EDGE_CURVE('',#50,#198,#206,.T.);
#206 = B_SPLINE_CURVE_WITH_KNOTS('',6,(#207,#208,#209,#210,#211,#212,
    #213,#214,#215,#216,#217,#218,#219,#220,#221,#222,#223,#224,#225,
    #226,#227,#228),.UNSPECIFIED.,.F.,.F.,(7,5,5,5,7),(0.,0.249189064507
    ,0.499999995051,0.750176878249,1.),.UNSPECIFIED.);
#207 = CARTESIAN_POINT('',(3.50030458649,-4.,1.));
#208 = CARTESIAN_POINT('',(3.529721910383,-4.,1.));
#209 = CARTESIAN_POINT('',(3.559983383532,-3.997924290567,1.));
#210 = CARTESIAN_POINT('',(3.5908597637,-3.993549270008,1.));
#211 = CARTESIAN_POINT('',(3.622048117585,-3.986681821108,1.));
#212 = CARTESIAN_POINT('',(3.653171551878,-3.977204574315,1.));
#213 = CARTESIAN_POINT('',(3.71468613996,-3.952930380691,1.));
#214 = CARTESIAN_POINT('',(3.745071412092,-3.938099020127,1.));
#215 = CARTESIAN_POINT('',(3.774576269011,-3.920601516971,1.));
#216 = CARTESIAN_POINT('',(3.802765522193,-3.90053329389,1.));
#217 = CARTESIAN_POINT('',(3.829237607893,-3.878121392043,1.));
#218 = CARTESIAN_POINT('',(3.878059598307,-3.829299402357,1.));
#219 = CARTESIAN_POINT('',(3.900419961262,-3.802899357324,1.));
#220 = CARTESIAN_POINT('',(3.92044927058,-3.77479003298,1.));
#221 = CARTESIAN_POINT('',(3.937921983373,-3.745369717986,1.));
#222 = CARTESIAN_POINT('',(3.952742739294,-3.715070159955,1.));
#223 = CARTESIAN_POINT('',(3.977083832329,-3.653567514358,1.));
#224 = CARTESIAN_POINT('',(3.986611825148,-3.622365564419,1.));
#225 = CARTESIAN_POINT('',(3.993515830686,-3.591095470976,1.));
#226 = CARTESIAN_POINT('',(3.997913713117,-3.560137389456,1.));
#227 = CARTESIAN_POINT('',(4.,-3.529796762027,1.));
#228 = CARTESIAN_POINT('',(4.,-3.50030458649,1.));
#229 = PLANE('',#230);
#230 = AXIS2_PLACEMENT_3D('',#231,#232,#233);
#231 = CARTESIAN_POINT('',(-4.,-4.,1.));
#232 = DIRECTION('',(0.,0.,-1.));
#233 = DIRECTION('',(0.707106781187,0.707106781187,0.));
#234 = ADVANCED_FACE('',(#235),#259,.F.);
#235 = FACE_BOUND('',#236,.F.);
#236 = EDGE_LOOP('',(#237,#238,#251,#258));
#237 = ORIENTED_EDGE('',*,*,#100,.T.);
#238 = ORIENTED_EDGE('',*,*,#239,.T.);
#239 = EDGE_CURVE('',#101,#240,#242,.T.);
#240 = VERTEX_POINT('',#241);
#241 = CARTESIAN_POINT('',(-3.814310563054,-3.314615170749,
    6.317449748351));
#242 = B_SPLINE_CURVE_WITH_KNOTS('',3,(#243,#244,#245,#246,#247,#248,
    #249,#250),.UNSPECIFIED.,.F.,.F.,(4,2,2,4),(-0.266885568849,
    1.742850792355E-02,5.824497069457,6.108811146229),.UNSPECIFIED.);
#243 = CARTESIAN_POINT('',(-4.009916381071,-3.510220967561,0.716032));
#244 = CARTESIAN_POINT('',(-4.006610920714,-3.506915507204,0.810688));
#245 = CARTESIAN_POINT('',(-4.003305460357,-3.503610046847,0.905344));
#246 = CARTESIAN_POINT('',(-3.932486512316,-3.432791098806,
    2.933333333333));
#247 = CARTESIAN_POINT('',(-3.864973024632,-3.365277611122,
    4.866666666667));
#248 = CARTESIAN_POINT('',(-3.794154076591,-3.294458663081,6.894656));
#249 = CARTESIAN_POINT('',(-3.790848616234,-3.291153202724,6.989312));
#250 = CARTESIAN_POINT('',(-3.787543155877,-3.287847742367,7.083968));
#251 = ORIENTED_EDGE('',*,*,#252,.T.);
#252 = EDGE_CURVE('',#240,#71,#253,.T.);
#253 = CIRCLE('',#254,0.5);
#254 = AXIS2_PLACEMENT_3D('',#255,#256,#257);
#255 = CARTESIAN_POINT('',(-3.314615149544,-3.314615149544,6.3));
#256 = DIRECTION('',(3.487826126593E-02,3.487826126593E-02,
    0.998782766062));
#257 = DIRECTION('',(1.217276121239E-03,-0.999391568351,
    3.48570128924E-02));
#258 = ORIENTED_EDGE('',*,*,#80,.F.);
#259 = ( BOUNDED_SURFACE() B_SPLINE_SURFACE(2,3,(
    (#260,#261,#262,#263,#264,#265,#266,#267)
    ,(#268,#269,#270,#271,#272,#273,#274,#275)
    ,(#276,#277,#278,#279,#280,#281,#282,#283
)),.UNSPECIFIED.,.F.,.F.,.F.) B_SPLINE_SURFACE_WITH_KNOTS((3,3),(4,2,2,4
    ),(0.,5.807068561533),(-0.266885568849,1.742850792355E-02,
    5.824497069457,6.108811146229),.UNSPECIFIED.) 
GEOMETRIC_REPRESENTATION_ITEM() RATIONAL_B_SPLINE_SURFACE((
    (1.,1.,1.,1.,1.,1.,1.,1.)
    ,(0.70753726929,0.70753726929,0.70753726929,0.70753726929
      ,0.70753726929,0.70753726929,0.70753726929,0.70753726929)
,(1.,1.,1.,1.,1.,1.,1.,1.))) REPRESENTATION_ITEM('') SURFACE() );
#260 = CARTESIAN_POINT('',(-3.510220967561,-4.009916381071,0.716032));
#261 = CARTESIAN_POINT('',(-3.506915507204,-4.006610920714,0.810688));
#262 = CARTESIAN_POINT('',(-3.503610046847,-4.003305460357,0.905344));
#263 = CARTESIAN_POINT('',(-3.432791098806,-3.932486512316,
    2.933333333333));
#264 = CARTESIAN_POINT('',(-3.365277611122,-3.864973024632,
    4.866666666667));
#265 = CARTESIAN_POINT('',(-3.294458663081,-3.794154076591,6.894656));
#266 = CARTESIAN_POINT('',(-3.291153202724,-3.790848616234,6.989312));
#267 = CARTESIAN_POINT('',(-3.287847742367,-3.787543155877,7.083968));
#268 = CARTESIAN_POINT('',(-4.009308504992,-4.009308504992,0.73343929335
    ));
#269 = CARTESIAN_POINT('',(-4.006003044635,-4.006003044635,0.82809529335
    ));
#270 = CARTESIAN_POINT('',(-4.002697584278,-4.002697584278,0.92275129335
    ));
#271 = CARTESIAN_POINT('',(-3.931878636237,-3.931878636237,
    2.950740626684));
#272 = CARTESIAN_POINT('',(-3.864365148553,-3.864365148553,
    4.884073960017));
#273 = CARTESIAN_POINT('',(-3.793546200512,-3.793546200512,6.91206329335
    ));
#274 = CARTESIAN_POINT('',(-3.790240740155,-3.790240740155,7.00671929335
    ));
#275 = CARTESIAN_POINT('',(-3.786935279798,-3.786935279798,7.10137529335
    ));
#276 = CARTESIAN_POINT('',(-4.009916381071,-3.510220967561,0.716032));
#277 = CARTESIAN_POINT('',(-4.006610920714,-3.506915507204,0.810688));
#278 = CARTESIAN_POINT('',(-4.003305460357,-3.503610046847,0.905344));
#279 = CARTESIAN_POINT('',(-3.932486512316,-3.432791098806,
    2.933333333333));
#280 = CARTESIAN_POINT('',(-3.864973024632,-3.365277611122,
    4.866666666667));
#281 = CARTESIAN_POINT('',(-3.794154076591,-3.294458663081,6.894656));
#282 = CARTESIAN_POINT('',(-3.790848616234,-3.291153202724,6.989312));
#283 = CARTESIAN_POINT('',(-3.787543155877,-3.287847742367,7.083968));
#284 = ADVANCED_FACE('',(#285),#309,.T.);
#285 = FACE_BOUND('',#286,.T.);
#286 = EDGE_LOOP('',(#287,#288,#301,#308));
#287 = ORIENTED_EDGE('',*,*,#205,.T.);
#288 = ORIENTED_EDGE('',*,*,#289,.T.);
#289 = EDGE_CURVE('',#198,#290,#292,.T.);
#290 = VERTEX_POINT('',#291);
#291 = CARTESIAN_POINT('',(3.814310563054,-3.314615149544,6.317449748351
    ));
#292 = B_SPLINE_CURVE_WITH_KNOTS('',3,(#293,#294,#295,#296,#297,#298,
    #299,#300),.UNSPECIFIED.,.F.,.F.,(4,2,2,4),(-0.266885568849,
    1.742850792355E-02,5.824497069457,6.108811146229),.UNSPECIFIED.);
#293 = CARTESIAN_POINT('',(4.009916381071,-3.510220967561,0.716032));
#294 = CARTESIAN_POINT('',(4.006610920714,-3.506915507204,0.810688));
#295 = CARTESIAN_POINT('',(4.003305460357,-3.503610046847,0.905344));
#296 = CARTESIAN_POINT('',(3.932486512316,-3.432791098806,2.933333333333
    ));
#297 = CARTESIAN_POINT('',(3.864973024632,-3.365277611122,4.866666666667
    ));
#298 = CARTESIAN_POINT('',(3.794154076591,-3.294458663081,6.894656));
#299 = CARTESIAN_POINT('',(3.790848616234,-3.291153202724,6.989312));
#300 = CARTESIAN_POINT('',(3.787543155877,-3.287847742367,7.083968));
#301 = ORIENTED_EDGE('',*,*,#302,.F.);
#302 = EDGE_CURVE('',#58,#290,#303,.T.);
#303 = CIRCLE('',#304,0.5);
#304 = AXIS2_PLACEMENT_3D('',#305,#306,#307);
#305 = CARTESIAN_POINT('',(3.314615149544,-3.314615149544,6.3));
#306 = DIRECTION('',(-3.487826274237E-02,3.487826274237E-02,
    0.998782765959));
#307 = DIRECTION('',(8.881784197001E-16,-0.999390827019,
    3.48994967025E-02));
#308 = ORIENTED_EDGE('',*,*,#57,.F.);
#309 = ( BOUNDED_SURFACE() B_SPLINE_SURFACE(2,3,(
    (#310,#311,#312,#313,#314,#315,#316,#317)
    ,(#318,#319,#320,#321,#322,#323,#324,#325)
    ,(#326,#327,#328,#329,#330,#331,#332,#333
)),.UNSPECIFIED.,.F.,.F.,.F.) B_SPLINE_SURFACE_WITH_KNOTS((3,3),(4,2,2,4
    ),(0.,5.807068561533),(-0.266885568849,1.742850792355E-02,
    5.824497069457,6.108811146229),.UNSPECIFIED.) 
GEOMETRIC_REPRESENTATION_ITEM() RATIONAL_B_SPLINE_SURFACE((
    (1.,1.,1.,1.,1.,1.,1.,1.)
    ,(0.70753726929,0.70753726929,0.70753726929,0.70753726929
      ,0.70753726929,0.70753726929,0.70753726929,0.70753726929)
,(1.,1.,1.,1.,1.,1.,1.,1.))) REPRESENTATION_ITEM('') SURFACE() );
#310 = CARTESIAN_POINT('',(3.510220967561,-4.009916381071,0.716032));
#311 = CARTESIAN_POINT('',(3.506915507204,-4.006610920714,0.810688));
#312 = CARTESIAN_POINT('',(3.503610046847,-4.003305460357,0.905344));
#313 = CARTESIAN_POINT('',(3.432791098806,-3.932486512316,2.933333333333
    ));
#314 = CARTESIAN_POINT('',(3.365277611122,-3.864973024632,4.866666666667
    ));
#315 = CARTESIAN_POINT('',(3.294458663081,-3.794154076591,6.894656));
#316 = CARTESIAN_POINT('',(3.291153202724,-3.790848616234,6.989312));
#317 = CARTESIAN_POINT('',(3.287847742367,-3.787543155877,7.083968));
#318 = CARTESIAN_POINT('',(4.009308504992,-4.009308504992,0.73343929335)
  );
#319 = CARTESIAN_POINT('',(4.006003044635,-4.006003044635,0.82809529335)
  );
#320 = CARTESIAN_POINT('',(4.002697584278,-4.002697584278,0.92275129335)
  );
#321 = CARTESIAN_POINT('',(3.931878636237,-3.931878636237,2.950740626684
    ));
#322 = CARTESIAN_POINT('',(3.864365148553,-3.864365148553,4.884073960017
    ));
#323 = CARTESIAN_POINT('',(3.793546200512,-3.793546200512,6.91206329335)
  );
#324 = CARTESIAN_POINT('',(3.790240740155,-3.790240740155,7.00671929335)
  );
#325 = CARTESIAN_POINT('',(3.786935279798,-3.786935279798,7.10137529335)
  );
#326 = CARTESIAN_POINT('',(4.009916381071,-3.510220967561,0.716032));
#327 = CARTESIAN_POINT('',(4.006610920714,-3.506915507204,0.810688));
#328 = CARTESIAN_POINT('',(4.003305460357,-3.503610046847,0.905344));
#329 = CARTESIAN_POINT('',(3.932486512316,-3.432791098806,2.933333333333
    ));
#330 = CARTESIAN_POINT('',(3.864973024632,-3.365277611122,4.866666666667
    ));
#331 = CARTESIAN_POINT('',(3.794154076591,-3.294458663081,6.894656));
#332 = CARTESIAN_POINT('',(3.790848616234,-3.291153202724,6.989312));
#333 = CARTESIAN_POINT('',(3.787543155877,-3.287847742367,7.083968));
#334 = ADVANCED_FACE('',(#335),#364,.F.);
#335 = FACE_BOUND('',#336,.F.);
#336 = EDGE_LOOP('',(#337,#338,#347,#357));
#337 = ORIENTED_EDGE('',*,*,#70,.F.);
#338 = ORIENTED_EDGE('',*,*,#339,.T.);
#339 = EDGE_CURVE('',#71,#340,#342,.T.);
#340 = VERTEX_POINT('',#341);
#341 = CARTESIAN_POINT('',(-3.314615149544,-3.314615149544,6.8));
#342 = CIRCLE('',#343,0.5);
#343 = AXIS2_PLACEMENT_3D('',#344,#345,#346);
#344 = CARTESIAN_POINT('',(-3.314615149544,-3.314615149544,6.3));
#345 = DIRECTION('',(-1.,4.243466689318E-08,-1.776356915087E-15));
#346 = DIRECTION('',(-4.240881690265E-08,-0.999390827019,
    3.48994967025E-02));
#347 = ORIENTED_EDGE('',*,*,#348,.T.);
#348 = EDGE_CURVE('',#340,#349,#351,.T.);
#349 = VERTEX_POINT('',#350);
#350 = CARTESIAN_POINT('',(3.314615170749,-3.314615149544,6.8));
#351 = B_SPLINE_CURVE_WITH_KNOTS('',2,(#352,#353,#354,#355,#356),
  .UNSPECIFIED.,.F.,.F.,(3,1,1,3),(-0.295736454499,-1.685102610601E-02,
    7.611770100002,7.890655528395),.UNSPECIFIED.);
#352 = CARTESIAN_POINT('',(-4.093195991447,-3.314615149544,6.8));
#353 = CARTESIAN_POINT('',(-3.953753277251,-3.314615149544,6.8));
#354 = CARTESIAN_POINT('',(-1.33226762955E-15,-3.314615149544,6.8));
#355 = CARTESIAN_POINT('',(3.953753277251,-3.314615149544,6.8));
#356 = CARTESIAN_POINT('',(4.093195991447,-3.314615149544,6.8));
#357 = ORIENTED_EDGE('',*,*,#358,.T.);
#358 = EDGE_CURVE('',#349,#58,#359,.T.);
#359 = CIRCLE('',#360,0.5);
#360 = AXIS2_PLACEMENT_3D('',#361,#362,#363);
#361 = CARTESIAN_POINT('',(3.314615149544,-3.314615149544,6.3));
#362 = DIRECTION('',(1.,-1.480947692787E-09,-4.240881867901E-08));
#363 = DIRECTION('',(-1.480947692787E-09,-1.,6.28052421765E-17));
#364 = ( BOUNDED_SURFACE() B_SPLINE_SURFACE(2,2,(
    (#365,#366,#367,#368,#369)
    ,(#370,#371,#372,#373,#374)
    ,(#375,#376,#377,#378,#379
)),.UNSPECIFIED.,.F.,.F.,.F.) B_SPLINE_SURFACE_WITH_KNOTS((3,3),(3,1,1,3
    ),(0.,7.628621126108),(-0.295736454499,-1.685102610601E-02,
    7.611770100002,7.890655528395),.UNSPECIFIED.) 
GEOMETRIC_REPRESENTATION_ITEM() RATIONAL_B_SPLINE_SURFACE((
    (1.,1.,1.,1.,1.)
    ,(0.719339800339,0.719339800339,0.719339800339,0.719339800339
      ,0.719339800339)
,(1.,1.,1.,1.,1.))) REPRESENTATION_ITEM('') SURFACE() );
#365 = CARTESIAN_POINT('',(-4.093195991447,-3.814310563054,
    6.317449748351));
#366 = CARTESIAN_POINT('',(-3.953753277251,-3.814310563054,
    6.317449748351));
#367 = CARTESIAN_POINT('',(-4.440892098501E-16,-3.814310563054,
    6.317449748351));
#368 = CARTESIAN_POINT('',(3.953753277251,-3.814310563054,6.317449748351
    ));
#369 = CARTESIAN_POINT('',(4.093195991447,-3.814310563054,6.317449748351
    ));
#370 = CARTESIAN_POINT('',(-4.093195991447,-3.797459536948,6.8));
#371 = CARTESIAN_POINT('',(-3.953753277251,-3.797459536948,6.8));
#372 = CARTESIAN_POINT('',(-1.234713301394E-15,-3.797459536948,6.8));
#373 = CARTESIAN_POINT('',(3.953753277251,-3.797459536948,6.8));
#374 = CARTESIAN_POINT('',(4.093195991447,-3.797459536948,6.8));
#375 = CARTESIAN_POINT('',(-4.093195991447,-3.314615149544,6.8));
#376 = CARTESIAN_POINT('',(-3.953753277251,-3.314615149544,6.8));
#377 = CARTESIAN_POINT('',(-1.33226762955E-15,-3.314615149544,6.8));
#378 = CARTESIAN_POINT('',(3.953753277251,-3.314615149544,6.8));
#379 = CARTESIAN_POINT('',(4.093195991447,-3.314615149544,6.8));
#380 = ADVANCED_FACE('',(#381),#406,.T.);
#381 = FACE_BOUND('',#382,.T.);
#382 = EDGE_LOOP('',(#383,#384,#385,#395));
#383 = ORIENTED_EDGE('',*,*,#127,.T.);
#384 = ORIENTED_EDGE('',*,*,#239,.T.);
#385 = ORIENTED_EDGE('',*,*,#386,.F.);
#386 = EDGE_CURVE('',#387,#240,#389,.T.);
#387 = VERTEX_POINT('',#388);
#388 = CARTESIAN_POINT('',(-3.814310563054,3.314615149544,6.317449748351
    ));
#389 = B_SPLINE_CURVE_WITH_KNOTS('',2,(#390,#391,#392,#393,#394),
  .UNSPECIFIED.,.F.,.F.,(3,1,1,3),(-0.295736454499,-1.685102610601E-02,
    7.611770100002,7.890655528395),.UNSPECIFIED.);
#390 = CARTESIAN_POINT('',(-3.814310563054,4.093195991447,6.317449748351
    ));
#391 = CARTESIAN_POINT('',(-3.814310563054,3.953753277251,6.317449748351
    ));
#392 = CARTESIAN_POINT('',(-3.814310563054,8.881784197001E-16,
    6.317449748351));
#393 = CARTESIAN_POINT('',(-3.814310563054,-3.953753277251,
    6.317449748351));
#394 = CARTESIAN_POINT('',(-3.814310563054,-4.093195991447,
    6.317449748351));
#395 = ORIENTED_EDGE('',*,*,#396,.F.);
#396 = EDGE_CURVE('',#128,#387,#397,.T.);
#397 = B_SPLINE_CURVE_WITH_KNOTS('',3,(#398,#399,#400,#401,#402,#403,
    #404,#405),.UNSPECIFIED.,.F.,.F.,(4,2,2,4),(-0.266885568849,
    1.742850792355E-02,5.824497069457,6.108811146229),.UNSPECIFIED.);
#398 = CARTESIAN_POINT('',(-4.009916381071,3.510220967561,0.716032));
#399 = CARTESIAN_POINT('',(-4.006610920714,3.506915507204,0.810688));
#400 = CARTESIAN_POINT('',(-4.003305460357,3.503610046847,0.905344));
#401 = CARTESIAN_POINT('',(-3.932486512316,3.432791098806,2.933333333333
    ));
#402 = CARTESIAN_POINT('',(-3.864973024632,3.365277611122,4.866666666667
    ));
#403 = CARTESIAN_POINT('',(-3.794154076591,3.294458663081,6.894656));
#404 = CARTESIAN_POINT('',(-3.790848616234,3.291153202724,6.989312));
#405 = CARTESIAN_POINT('',(-3.787543155877,3.287847742367,7.083968));
#406 = B_SPLINE_SURFACE_WITH_KNOTS('',1,1,(
    (#407,#408)
    ,(#409,#410)),.UNSPECIFIED.,.F.,.F.,.F.,(2,2),(2,2),(0.,8.),(0.,1.),
  .PIECEWISE_BEZIER_KNOTS.);
#407 = CARTESIAN_POINT('',(-4.,4.,1.));
#408 = CARTESIAN_POINT('',(-3.797459536948,3.797459536948,6.8));
#409 = CARTESIAN_POINT('',(-4.,-4.,1.));
#410 = CARTESIAN_POINT('',(-3.797459536948,-3.797459536948,6.8));
#411 = ADVANCED_FACE('',(#412),#437,.T.);
#412 = FACE_BOUND('',#413,.T.);
#413 = EDGE_LOOP('',(#414,#415,#428,#436));
#414 = ORIENTED_EDGE('',*,*,#197,.T.);
#415 = ORIENTED_EDGE('',*,*,#416,.T.);
#416 = EDGE_CURVE('',#171,#417,#419,.T.);
#417 = VERTEX_POINT('',#418);
#418 = CARTESIAN_POINT('',(3.814310563054,3.314615149544,6.317449748351)
  );
#419 = B_SPLINE_CURVE_WITH_KNOTS('',3,(#420,#421,#422,#423,#424,#425,
    #426,#427),.UNSPECIFIED.,.F.,.F.,(4,2,2,4),(-0.266885568849,
    1.742850792355E-02,5.824497069457,6.108811146229),.UNSPECIFIED.);
#420 = CARTESIAN_POINT('',(4.009916381071,3.510220967561,0.716032));
#421 = CARTESIAN_POINT('',(4.006610920714,3.506915507204,0.810688));
#422 = CARTESIAN_POINT('',(4.003305460357,3.503610046847,0.905344));
#423 = CARTESIAN_POINT('',(3.932486512316,3.432791098806,2.933333333333)
  );
#424 = CARTESIAN_POINT('',(3.864973024632,3.365277611122,4.866666666667)
  );
#425 = CARTESIAN_POINT('',(3.794154076591,3.294458663081,6.894656));
#426 = CARTESIAN_POINT('',(3.790848616234,3.291153202724,6.989312));
#427 = CARTESIAN_POINT('',(3.787543155877,3.287847742367,7.083968));
#428 = ORIENTED_EDGE('',*,*,#429,.F.);
#429 = EDGE_CURVE('',#290,#417,#430,.T.);
#430 = B_SPLINE_CURVE_WITH_KNOTS('',2,(#431,#432,#433,#434,#435),
  .UNSPECIFIED.,.F.,.F.,(3,1,1,3),(-0.295736454499,-1.685102610601E-02,
    7.611770100002,7.890655528395),.UNSPECIFIED.);
#431 = CARTESIAN_POINT('',(3.814310563054,-4.093195991447,6.317449748351
    ));
#432 = CARTESIAN_POINT('',(3.814310563054,-3.953753277251,6.317449748351
    ));
#433 = CARTESIAN_POINT('',(3.814310563054,-4.440892098501E-16,
    6.317449748351));
#434 = CARTESIAN_POINT('',(3.814310563054,3.953753277251,6.317449748351)
  );
#435 = CARTESIAN_POINT('',(3.814310563054,4.093195991447,6.317449748351)
  );
#436 = ORIENTED_EDGE('',*,*,#289,.F.);
#437 = B_SPLINE_SURFACE_WITH_KNOTS('',1,1,(
    (#438,#439)
    ,(#440,#441)),.UNSPECIFIED.,.F.,.F.,.F.,(2,2),(2,2),(0.,8.),(0.,1.),
  .PIECEWISE_BEZIER_KNOTS.);
#438 = CARTESIAN_POINT('',(4.,-4.,1.));
#439 = CARTESIAN_POINT('',(3.797459536948,-3.797459536948,6.8));
#440 = CARTESIAN_POINT('',(4.,4.,1.));
#441 = CARTESIAN_POINT('',(3.797459536948,3.797459536948,6.8));
#442 = ADVANCED_FACE('',(#443),#467,.T.);
#443 = FACE_BOUND('',#444,.T.);
#444 = EDGE_LOOP('',(#445,#446,#447,#456));
#445 = ORIENTED_EDGE('',*,*,#135,.T.);
#446 = ORIENTED_EDGE('',*,*,#396,.T.);
#447 = ORIENTED_EDGE('',*,*,#448,.F.);
#448 = EDGE_CURVE('',#449,#387,#451,.T.);
#449 = VERTEX_POINT('',#450);
#450 = CARTESIAN_POINT('',(-3.314615149544,3.814310563054,6.317449748351
    ));
#451 = CIRCLE('',#452,0.5);
#452 = AXIS2_PLACEMENT_3D('',#453,#454,#455);
#453 = CARTESIAN_POINT('',(-3.314615149544,3.314615149544,6.3));
#454 = DIRECTION('',(3.487826274237E-02,-3.487826274237E-02,
    0.998782765959));
#455 = DIRECTION('',(-8.881784197001E-16,0.999390827019,
    3.48994967025E-02));
#456 = ORIENTED_EDGE('',*,*,#457,.F.);
#457 = EDGE_CURVE('',#136,#449,#458,.T.);
#458 = B_SPLINE_CURVE_WITH_KNOTS('',3,(#459,#460,#461,#462,#463,#464,
    #465,#466),.UNSPECIFIED.,.F.,.F.,(4,2,2,4),(-0.266885568849,
    1.742850792355E-02,5.824497069457,6.108811146229),.UNSPECIFIED.);
#459 = CARTESIAN_POINT('',(-3.510220967561,4.009916381071,0.716032));
#460 = CARTESIAN_POINT('',(-3.506915507204,4.006610920714,0.810688));
#461 = CARTESIAN_POINT('',(-3.503610046847,4.003305460357,0.905344));
#462 = CARTESIAN_POINT('',(-3.432791098806,3.932486512316,2.933333333333
    ));
#463 = CARTESIAN_POINT('',(-3.365277611122,3.864973024632,4.866666666667
    ));
#464 = CARTESIAN_POINT('',(-3.294458663081,3.794154076591,6.894656));
#465 = CARTESIAN_POINT('',(-3.291153202724,3.790848616234,6.989312));
#466 = CARTESIAN_POINT('',(-3.287847742367,3.787543155877,7.083968));
#467 = ( BOUNDED_SURFACE() B_SPLINE_SURFACE(2,3,(
    (#468,#469,#470,#471,#472,#473,#474,#475)
    ,(#476,#477,#478,#479,#480,#481,#482,#483)
    ,(#484,#485,#486,#487,#488,#489,#490,#491
)),.UNSPECIFIED.,.F.,.F.,.F.) B_SPLINE_SURFACE_WITH_KNOTS((3,3),(4,2,2,4
    ),(0.,5.807068561533),(-0.266885568849,1.742850792355E-02,
    5.824497069457,6.108811146229),.UNSPECIFIED.) 
GEOMETRIC_REPRESENTATION_ITEM() RATIONAL_B_SPLINE_SURFACE((
    (1.,1.,1.,1.,1.,1.,1.,1.)
    ,(0.70753726929,0.70753726929,0.70753726929,0.70753726929
      ,0.70753726929,0.70753726929,0.70753726929,0.70753726929)
,(1.,1.,1.,1.,1.,1.,1.,1.))) REPRESENTATION_ITEM('') SURFACE() );
#468 = CARTESIAN_POINT('',(-3.510220967561,4.009916381071,0.716032));
#469 = CARTESIAN_POINT('',(-3.506915507204,4.006610920714,0.810688));
#470 = CARTESIAN_POINT('',(-3.503610046847,4.003305460357,0.905344));
#471 = CARTESIAN_POINT('',(-3.432791098806,3.932486512316,2.933333333333
    ));
#472 = CARTESIAN_POINT('',(-3.365277611122,3.864973024632,4.866666666667
    ));
#473 = CARTESIAN_POINT('',(-3.294458663081,3.794154076591,6.894656));
#474 = CARTESIAN_POINT('',(-3.291153202724,3.790848616234,6.989312));
#475 = CARTESIAN_POINT('',(-3.287847742367,3.787543155877,7.083968));
#476 = CARTESIAN_POINT('',(-4.009308504992,4.009308504992,0.73343929335)
  );
#477 = CARTESIAN_POINT('',(-4.006003044635,4.006003044635,0.82809529335)
  );
#478 = CARTESIAN_POINT('',(-4.002697584278,4.002697584278,0.92275129335)
  );
#479 = CARTESIAN_POINT('',(-3.931878636237,3.931878636237,2.950740626684
    ));
#480 = CARTESIAN_POINT('',(-3.864365148553,3.864365148553,4.884073960017
    ));
#481 = CARTESIAN_POINT('',(-3.793546200512,3.793546200512,6.91206329335)
  );
#482 = CARTESIAN_POINT('',(-3.790240740155,3.790240740155,7.00671929335)
  );
#483 = CARTESIAN_POINT('',(-3.786935279798,3.786935279798,7.10137529335)
  );
#484 = CARTESIAN_POINT('',(-4.009916381071,3.510220967561,0.716032));
#485 = CARTESIAN_POINT('',(-4.006610920714,3.506915507204,0.810688));
#486 = CARTESIAN_POINT('',(-4.003305460357,3.503610046847,0.905344));
#487 = CARTESIAN_POINT('',(-3.932486512316,3.432791098806,2.933333333333
    ));
#488 = CARTESIAN_POINT('',(-3.864973024632,3.365277611122,4.866666666667
    ));
#489 = CARTESIAN_POINT('',(-3.794154076591,3.294458663081,6.894656));
#490 = CARTESIAN_POINT('',(-3.790848616234,3.291153202724,6.989312));
#491 = CARTESIAN_POINT('',(-3.787543155877,3.287847742367,7.083968));
#492 = ADVANCED_FACE('',(#493),#517,.T.);
#493 = FACE_BOUND('',#494,.T.);
#494 = EDGE_LOOP('',(#495,#496,#509,#516));
#495 = ORIENTED_EDGE('',*,*,#170,.T.);
#496 = ORIENTED_EDGE('',*,*,#497,.T.);
#497 = EDGE_CURVE('',#163,#498,#500,.T.);
#498 = VERTEX_POINT('',#499);
#499 = CARTESIAN_POINT('',(3.314615149544,3.814310563054,6.317449748351)
  );
#500 = B_SPLINE_CURVE_WITH_KNOTS('',3,(#501,#502,#503,#504,#505,#506,
    #507,#508),.UNSPECIFIED.,.F.,.F.,(4,2,2,4),(-0.266885568849,
    1.742850792355E-02,5.824497069457,6.108811146229),.UNSPECIFIED.);
#501 = CARTESIAN_POINT('',(3.510220967561,4.009916381071,0.716032));
#502 = CARTESIAN_POINT('',(3.506915507204,4.006610920714,0.810688));
#503 = CARTESIAN_POINT('',(3.503610046847,4.003305460357,0.905344));
#504 = CARTESIAN_POINT('',(3.432791098806,3.932486512316,2.933333333333)
  );
#505 = CARTESIAN_POINT('',(3.365277611122,3.864973024632,4.866666666667)
  );
#506 = CARTESIAN_POINT('',(3.294458663081,3.794154076591,6.894656));
#507 = CARTESIAN_POINT('',(3.291153202724,3.790848616234,6.989312));
#508 = CARTESIAN_POINT('',(3.287847742367,3.787543155877,7.083968));
#509 = ORIENTED_EDGE('',*,*,#510,.F.);
#510 = EDGE_CURVE('',#417,#498,#511,.T.);
#511 = CIRCLE('',#512,0.5);
#512 = AXIS2_PLACEMENT_3D('',#513,#514,#515);
#513 = CARTESIAN_POINT('',(3.314615149544,3.314615149544,6.3));
#514 = DIRECTION('',(-3.487826274237E-02,-3.487826274238E-02,
    0.998782765959));
#515 = DIRECTION('',(0.999390827019,0.,3.48994967025E-02));
#516 = ORIENTED_EDGE('',*,*,#416,.F.);
#517 = ( BOUNDED_SURFACE() B_SPLINE_SURFACE(2,3,(
    (#518,#519,#520,#521,#522,#523,#524,#525)
    ,(#526,#527,#528,#529,#530,#531,#532,#533)
    ,(#534,#535,#536,#537,#538,#539,#540,#541
)),.UNSPECIFIED.,.F.,.F.,.F.) B_SPLINE_SURFACE_WITH_KNOTS((3,3),(4,2,2,4
    ),(0.,5.807068561533),(-0.266885568849,1.742850792355E-02,
    5.824497069457,6.108811146229),.UNSPECIFIED.) 
GEOMETRIC_REPRESENTATION_ITEM() RATIONAL_B_SPLINE_SURFACE((
    (1.,1.,1.,1.,1.,1.,1.,1.)
    ,(0.70753726929,0.70753726929,0.70753726929,0.70753726929
      ,0.70753726929,0.70753726929,0.70753726929,0.70753726929)
,(1.,1.,1.,1.,1.,1.,1.,1.))) REPRESENTATION_ITEM('') SURFACE() );
#518 = CARTESIAN_POINT('',(4.009916381071,3.510220967561,0.716032));
#519 = CARTESIAN_POINT('',(4.006610920714,3.506915507204,0.810688));
#520 = CARTESIAN_POINT('',(4.003305460357,3.503610046847,0.905344));
#521 = CARTESIAN_POINT('',(3.932486512316,3.432791098806,2.933333333333)
  );
#522 = CARTESIAN_POINT('',(3.864973024632,3.365277611122,4.866666666667)
  );
#523 = CARTESIAN_POINT('',(3.794154076591,3.294458663081,6.894656));
#524 = CARTESIAN_POINT('',(3.790848616234,3.291153202724,6.989312));
#525 = CARTESIAN_POINT('',(3.787543155877,3.287847742367,7.083968));
#526 = CARTESIAN_POINT('',(4.009308504992,4.009308504992,0.73343929335)
  );
#527 = CARTESIAN_POINT('',(4.006003044635,4.006003044635,0.82809529335)
  );
#528 = CARTESIAN_POINT('',(4.002697584278,4.002697584278,0.92275129335)
  );
#529 = CARTESIAN_POINT('',(3.931878636237,3.931878636237,2.950740626684)
  );
#530 = CARTESIAN_POINT('',(3.864365148553,3.864365148553,4.884073960017)
  );
#531 = CARTESIAN_POINT('',(3.793546200512,3.793546200512,6.91206329335)
  );
#532 = CARTESIAN_POINT('',(3.790240740155,3.790240740155,7.00671929335)
  );
#533 = CARTESIAN_POINT('',(3.786935279798,3.786935279798,7.10137529335)
  );
#534 = CARTESIAN_POINT('',(3.510220967561,4.009916381071,0.716032));
#535 = CARTESIAN_POINT('',(3.506915507204,4.006610920714,0.810688));
#536 = CARTESIAN_POINT('',(3.503610046847,4.003305460357,0.905344));
#537 = CARTESIAN_POINT('',(3.432791098806,3.932486512316,2.933333333333)
  );
#538 = CARTESIAN_POINT('',(3.365277611122,3.864973024632,4.866666666667)
  );
#539 = CARTESIAN_POINT('',(3.294458663081,3.794154076591,6.894656));
#540 = CARTESIAN_POINT('',(3.291153202724,3.790848616234,6.989312));
#541 = CARTESIAN_POINT('',(3.287847742367,3.787543155877,7.083968));
#542 = ADVANCED_FACE('',(#543),#556,.T.);
#543 = FACE_BOUND('',#544,.T.);
#544 = EDGE_LOOP('',(#545,#546,#547,#555));
#545 = ORIENTED_EDGE('',*,*,#162,.T.);
#546 = ORIENTED_EDGE('',*,*,#457,.T.);
#547 = ORIENTED_EDGE('',*,*,#548,.F.);
#548 = EDGE_CURVE('',#498,#449,#549,.T.);
#549 = B_SPLINE_CURVE_WITH_KNOTS('',2,(#550,#551,#552,#553,#554),
  .UNSPECIFIED.,.F.,.F.,(3,1,1,3),(-0.295736454499,-1.685102610601E-02,
    7.611770100002,7.890655528395),.UNSPECIFIED.);
#550 = CARTESIAN_POINT('',(4.093195991447,3.814310563054,6.317449748351)
  );
#551 = CARTESIAN_POINT('',(3.953753277251,3.814310563054,6.317449748351)
  );
#552 = CARTESIAN_POINT('',(4.440892098501E-16,3.814310563054,
    6.317449748351));
#553 = CARTESIAN_POINT('',(-3.953753277251,3.814310563054,6.317449748351
    ));
#554 = CARTESIAN_POINT('',(-4.093195991447,3.814310563054,6.317449748351
    ));
#555 = ORIENTED_EDGE('',*,*,#497,.F.);
#556 = B_SPLINE_SURFACE_WITH_KNOTS('',1,1,(
    (#557,#558)
    ,(#559,#560)),.UNSPECIFIED.,.F.,.F.,.F.,(2,2),(2,2),(0.,8.),(0.,1.),
  .PIECEWISE_BEZIER_KNOTS.);
#557 = CARTESIAN_POINT('',(4.,4.,1.));
#558 = CARTESIAN_POINT('',(3.797459536948,3.797459536948,6.8));
#559 = CARTESIAN_POINT('',(-4.,4.,1.));
#560 = CARTESIAN_POINT('',(-3.797459536948,3.797459536948,6.8));
#561 = ADVANCED_FACE('',(#562),#573,.T.);
#562 = FACE_BOUND('',#563,.F.);
#563 = EDGE_LOOP('',(#564,#565,#572));
#564 = ORIENTED_EDGE('',*,*,#252,.F.);
#565 = ORIENTED_EDGE('',*,*,#566,.T.);
#566 = EDGE_CURVE('',#240,#340,#567,.T.);
#567 = CIRCLE('',#568,0.5);
#568 = AXIS2_PLACEMENT_3D('',#569,#570,#571);
#569 = CARTESIAN_POINT('',(-3.314615149544,-3.314615149544,6.3));
#570 = DIRECTION('',(-4.243467146086E-08,1.,-1.776910492891E-15));
#571 = DIRECTION('',(3.48994967025E-02,1.480950452548E-09,0.999390827019
    ));
#572 = ORIENTED_EDGE('',*,*,#339,.F.);
#573 = SPHERICAL_SURFACE('',#574,0.5);
#574 = AXIS2_PLACEMENT_3D('',#575,#576,#577);
#575 = CARTESIAN_POINT('',(-3.314615149544,-3.314615149544,6.3));
#576 = DIRECTION('',(0.999390827019,4.240882134354E-08,
    -3.48994967025E-02));
#577 = DIRECTION('',(1.217276121239E-03,-0.999391568351,
    3.48570128924E-02));
#578 = ADVANCED_FACE('',(#579),#590,.T.);
#579 = FACE_BOUND('',#580,.F.);
#580 = EDGE_LOOP('',(#581,#582,#589));
#581 = ORIENTED_EDGE('',*,*,#358,.F.);
#582 = ORIENTED_EDGE('',*,*,#583,.T.);
#583 = EDGE_CURVE('',#349,#290,#584,.T.);
#584 = CIRCLE('',#585,0.5);
#585 = AXIS2_PLACEMENT_3D('',#586,#587,#588);
#586 = CARTESIAN_POINT('',(3.314615149544,-3.314615149544,6.3));
#587 = DIRECTION('',(1.672344243292E-16,1.,-7.092214378267E-24));
#588 = DIRECTION('',(1.,-1.672344243292E-16,-4.240881867901E-08));
#589 = ORIENTED_EDGE('',*,*,#302,.F.);
#590 = SPHERICAL_SURFACE('',#591,0.5);
#591 = AXIS2_PLACEMENT_3D('',#592,#593,#594);
#592 = CARTESIAN_POINT('',(3.314615149544,-3.314615149544,6.3));
#593 = DIRECTION('',(-4.240881867901E-08,0.,-1.));
#594 = DIRECTION('',(-1.480947692787E-09,-1.,6.28052421765E-17));
#595 = ADVANCED_FACE('',(#596),#627,.F.);
#596 = FACE_BOUND('',#597,.F.);
#597 = EDGE_LOOP('',(#598,#599,#609,#619));
#598 = ORIENTED_EDGE('',*,*,#348,.F.);
#599 = ORIENTED_EDGE('',*,*,#600,.F.);
#600 = EDGE_CURVE('',#601,#340,#603,.T.);
#601 = VERTEX_POINT('',#602);
#602 = CARTESIAN_POINT('',(-3.314615170749,3.314615149544,6.8));
#603 = B_SPLINE_CURVE_WITH_KNOTS('',2,(#604,#605,#606,#607,#608),
  .UNSPECIFIED.,.F.,.F.,(3,1,1,3),(-0.295736454499,-1.685102610601E-02,
    7.611770100002,7.890655528395),.UNSPECIFIED.);
#604 = CARTESIAN_POINT('',(-3.314615149544,4.093195991447,6.8));
#605 = CARTESIAN_POINT('',(-3.314615149544,3.953753277251,6.8));
#606 = CARTESIAN_POINT('',(-3.314615149544,8.881784197001E-16,6.8));
#607 = CARTESIAN_POINT('',(-3.314615149544,-3.953753277251,6.8));
#608 = CARTESIAN_POINT('',(-3.314615149544,-4.093195991447,6.8));
#609 = ORIENTED_EDGE('',*,*,#610,.F.);
#610 = EDGE_CURVE('',#611,#601,#613,.T.);
#611 = VERTEX_POINT('',#612);
#612 = CARTESIAN_POINT('',(3.314615149544,3.314615170749,6.8));
#613 = B_SPLINE_CURVE_WITH_KNOTS('',2,(#614,#615,#616,#617,#618),
  .UNSPECIFIED.,.F.,.F.,(3,1,1,3),(-0.295736454499,-1.685102610601E-02,
    7.611770100002,7.890655528395),.UNSPECIFIED.);
#614 = CARTESIAN_POINT('',(4.093195991447,3.314615149544,6.8));
#615 = CARTESIAN_POINT('',(3.953753277251,3.314615149544,6.8));
#616 = CARTESIAN_POINT('',(0.,3.314615149544,6.8));
#617 = CARTESIAN_POINT('',(-3.953753277251,3.314615149544,6.8));
#618 = CARTESIAN_POINT('',(-4.093195991447,3.314615149544,6.8));
#619 = ORIENTED_EDGE('',*,*,#620,.F.);
#620 = EDGE_CURVE('',#349,#611,#621,.T.);
#621 = B_SPLINE_CURVE_WITH_KNOTS('',2,(#622,#623,#624,#625,#626),
  .UNSPECIFIED.,.F.,.F.,(3,1,1,3),(-0.295736454499,-1.685102610601E-02,
    7.611770100002,7.890655528395),.UNSPECIFIED.);
#622 = CARTESIAN_POINT('',(3.314615149544,-4.093195991447,6.8));
#623 = CARTESIAN_POINT('',(3.314615149544,-3.953753277251,6.8));
#624 = CARTESIAN_POINT('',(3.314615149544,-8.881784197001E-16,6.8));
#625 = CARTESIAN_POINT('',(3.314615149544,3.953753277251,6.8));
#626 = CARTESIAN_POINT('',(3.314615149544,4.093195991447,6.8));
#627 = PLANE('',#628);
#628 = AXIS2_PLACEMENT_3D('',#629,#630,#631);
#629 = CARTESIAN_POINT('',(-3.797459536948,-3.797459536948,6.8));
#630 = DIRECTION('',(0.,0.,-1.));
#631 = DIRECTION('',(0.707106781187,0.707106781187,0.));
#632 = ADVANCED_FACE('',(#633),#645,.F.);
#633 = FACE_BOUND('',#634,.F.);
#634 = EDGE_LOOP('',(#635,#642,#643,#644));
#635 = ORIENTED_EDGE('',*,*,#636,.F.);
#636 = EDGE_CURVE('',#601,#387,#637,.T.);
#637 = CIRCLE('',#638,0.5);
#638 = AXIS2_PLACEMENT_3D('',#639,#640,#641);
#639 = CARTESIAN_POINT('',(-3.314615149544,3.314615149544,6.3));
#640 = DIRECTION('',(-3.223137560567E-16,-1.,-8.881784333691E-16));
#641 = DIRECTION('',(-1.,3.223137937233E-16,-4.24088231199E-08));
#642 = ORIENTED_EDGE('',*,*,#600,.T.);
#643 = ORIENTED_EDGE('',*,*,#566,.F.);
#644 = ORIENTED_EDGE('',*,*,#386,.F.);
#645 = ( BOUNDED_SURFACE() B_SPLINE_SURFACE(2,2,(
    (#646,#647,#648,#649,#650)
    ,(#651,#652,#653,#654,#655)
    ,(#656,#657,#658,#659,#660
)),.UNSPECIFIED.,.F.,.F.,.F.) B_SPLINE_SURFACE_WITH_KNOTS((3,3),(3,1,1,3
    ),(0.,7.628621126108),(-0.295736454499,-1.685102610601E-02,
    7.611770100002,7.890655528395),.UNSPECIFIED.) 
GEOMETRIC_REPRESENTATION_ITEM() RATIONAL_B_SPLINE_SURFACE((
    (1.,1.,1.,1.,1.)
    ,(0.719339800339,0.719339800339,0.719339800339,0.719339800339
      ,0.719339800339)
,(1.,1.,1.,1.,1.))) REPRESENTATION_ITEM('') SURFACE() );
#646 = CARTESIAN_POINT('',(-3.814310563054,4.093195991447,6.317449748351
    ));
#647 = CARTESIAN_POINT('',(-3.814310563054,3.953753277251,6.317449748351
    ));
#648 = CARTESIAN_POINT('',(-3.814310563054,8.881784197001E-16,
    6.317449748351));
#649 = CARTESIAN_POINT('',(-3.814310563054,-3.953753277251,
    6.317449748351));
#650 = CARTESIAN_POINT('',(-3.814310563054,-4.093195991447,
    6.317449748351));
#651 = CARTESIAN_POINT('',(-3.797459536948,4.093195991447,6.8));
#652 = CARTESIAN_POINT('',(-3.797459536948,3.953753277251,6.8));
#653 = CARTESIAN_POINT('',(-3.797459536948,0.,6.8));
#654 = CARTESIAN_POINT('',(-3.797459536948,-3.953753277251,6.8));
#655 = CARTESIAN_POINT('',(-3.797459536948,-4.093195991447,6.8));
#656 = CARTESIAN_POINT('',(-3.314615149544,4.093195991447,6.8));
#657 = CARTESIAN_POINT('',(-3.314615149544,3.953753277251,6.8));
#658 = CARTESIAN_POINT('',(-3.314615149544,8.881784197001E-16,6.8));
#659 = CARTESIAN_POINT('',(-3.314615149544,-3.953753277251,6.8));
#660 = CARTESIAN_POINT('',(-3.314615149544,-4.093195991447,6.8));
#661 = ADVANCED_FACE('',(#662),#674,.F.);
#662 = FACE_BOUND('',#663,.F.);
#663 = EDGE_LOOP('',(#664,#665,#666,#673));
#664 = ORIENTED_EDGE('',*,*,#583,.F.);
#665 = ORIENTED_EDGE('',*,*,#620,.T.);
#666 = ORIENTED_EDGE('',*,*,#667,.T.);
#667 = EDGE_CURVE('',#611,#417,#668,.T.);
#668 = CIRCLE('',#669,0.5);
#669 = AXIS2_PLACEMENT_3D('',#670,#671,#672);
#670 = CARTESIAN_POINT('',(3.314615149544,3.314615149544,6.3));
#671 = DIRECTION('',(1.480948612523E-09,1.,-4.240881956719E-08));
#672 = DIRECTION('',(1.,-1.480948612523E-09,2.727340541597E-15));
#673 = ORIENTED_EDGE('',*,*,#429,.F.);
#674 = ( BOUNDED_SURFACE() B_SPLINE_SURFACE(2,2,(
    (#675,#676,#677,#678,#679)
    ,(#680,#681,#682,#683,#684)
    ,(#685,#686,#687,#688,#689
)),.UNSPECIFIED.,.F.,.F.,.F.) B_SPLINE_SURFACE_WITH_KNOTS((3,3),(3,1,1,3
    ),(0.,7.628621126108),(-0.295736454499,-1.685102610601E-02,
    7.611770100002,7.890655528395),.UNSPECIFIED.) 
GEOMETRIC_REPRESENTATION_ITEM() RATIONAL_B_SPLINE_SURFACE((
    (1.,1.,1.,1.,1.)
    ,(0.719339800339,0.719339800339,0.719339800339,0.719339800339
      ,0.719339800339)
,(1.,1.,1.,1.,1.))) REPRESENTATION_ITEM('') SURFACE() );
#675 = CARTESIAN_POINT('',(3.814310563054,-4.093195991447,6.317449748351
    ));
#676 = CARTESIAN_POINT('',(3.814310563054,-3.953753277251,6.317449748351
    ));
#677 = CARTESIAN_POINT('',(3.814310563054,-4.440892098501E-16,
    6.317449748351));
#678 = CARTESIAN_POINT('',(3.814310563054,3.953753277251,6.317449748351)
  );
#679 = CARTESIAN_POINT('',(3.814310563054,4.093195991447,6.317449748351)
  );
#680 = CARTESIAN_POINT('',(3.797459536948,-4.093195991447,6.8));
#681 = CARTESIAN_POINT('',(3.797459536948,-3.953753277251,6.8));
#682 = CARTESIAN_POINT('',(3.797459536948,-9.260349760454E-16,6.8));
#683 = CARTESIAN_POINT('',(3.797459536948,3.953753277251,6.8));
#684 = CARTESIAN_POINT('',(3.797459536948,4.093195991447,6.8));
#685 = CARTESIAN_POINT('',(3.314615149544,-4.093195991447,6.8));
#686 = CARTESIAN_POINT('',(3.314615149544,-3.953753277251,6.8));
#687 = CARTESIAN_POINT('',(3.314615149544,-8.881784197001E-16,6.8));
#688 = CARTESIAN_POINT('',(3.314615149544,3.953753277251,6.8));
#689 = CARTESIAN_POINT('',(3.314615149544,4.093195991447,6.8));
#690 = ADVANCED_FACE('',(#691),#702,.T.);
#691 = FACE_BOUND('',#692,.F.);
#692 = EDGE_LOOP('',(#693,#700,#701));
#693 = ORIENTED_EDGE('',*,*,#694,.F.);
#694 = EDGE_CURVE('',#601,#449,#695,.T.);
#695 = CIRCLE('',#696,0.5);
#696 = AXIS2_PLACEMENT_3D('',#697,#698,#699);
#697 = CARTESIAN_POINT('',(-3.314615149544,3.314615149544,6.3));
#698 = DIRECTION('',(-1.,1.480947847866E-09,-4.24088231199E-08));
#699 = DIRECTION('',(1.480947847866E-09,1.,9.509836750301E-16));
#700 = ORIENTED_EDGE('',*,*,#636,.T.);
#701 = ORIENTED_EDGE('',*,*,#448,.F.);
#702 = SPHERICAL_SURFACE('',#703,0.5);
#703 = AXIS2_PLACEMENT_3D('',#704,#705,#706);
#704 = CARTESIAN_POINT('',(-3.314615149544,3.314615149544,6.3));
#705 = DIRECTION('',(4.24088231199E-08,8.881784197001E-16,-1.));
#706 = DIRECTION('',(1.480947847866E-09,1.,9.509836750301E-16));
#707 = ADVANCED_FACE('',(#708),#719,.T.);
#708 = FACE_BOUND('',#709,.F.);
#709 = EDGE_LOOP('',(#710,#711,#718));
#710 = ORIENTED_EDGE('',*,*,#667,.F.);
#711 = ORIENTED_EDGE('',*,*,#712,.T.);
#712 = EDGE_CURVE('',#611,#498,#713,.T.);
#713 = CIRCLE('',#714,0.5);
#714 = AXIS2_PLACEMENT_3D('',#715,#716,#717);
#715 = CARTESIAN_POINT('',(3.314615149544,3.314615149544,6.3));
#716 = DIRECTION('',(-1.,1.98791641714E-16,-2.664535267531E-15));
#717 = DIRECTION('',(1.987917547138E-16,1.,-4.240881956719E-08));
#718 = ORIENTED_EDGE('',*,*,#510,.F.);
#719 = SPHERICAL_SURFACE('',#720,0.5);
#720 = AXIS2_PLACEMENT_3D('',#721,#722,#723);
#721 = CARTESIAN_POINT('',(3.314615149544,3.314615149544,6.3));
#722 = DIRECTION('',(2.6645352591E-15,-4.240881956719E-08,-1.));
#723 = DIRECTION('',(1.,-1.480948612523E-09,2.727340541597E-15));
#724 = ADVANCED_FACE('',(#725),#731,.F.);
#725 = FACE_BOUND('',#726,.F.);
#726 = EDGE_LOOP('',(#727,#728,#729,#730));
#727 = ORIENTED_EDGE('',*,*,#712,.F.);
#728 = ORIENTED_EDGE('',*,*,#610,.T.);
#729 = ORIENTED_EDGE('',*,*,#694,.T.);
#730 = ORIENTED_EDGE('',*,*,#548,.F.);
#731 = ( BOUNDED_SURFACE() B_SPLINE_SURFACE(2,2,(
    (#732,#733,#734,#735,#736)
    ,(#737,#738,#739,#740,#741)
    ,(#742,#743,#744,#745,#746
)),.UNSPECIFIED.,.F.,.F.,.F.) B_SPLINE_SURFACE_WITH_KNOTS((3,3),(3,1,1,3
    ),(0.,7.628621126108),(-0.295736454499,-1.685102610601E-02,
    7.611770100002,7.890655528395),.UNSPECIFIED.) 
GEOMETRIC_REPRESENTATION_ITEM() RATIONAL_B_SPLINE_SURFACE((
    (1.,1.,1.,1.,1.)
    ,(0.719339800339,0.719339800339,0.719339800339,0.719339800339
      ,0.719339800339)
,(1.,1.,1.,1.,1.))) REPRESENTATION_ITEM('') SURFACE() );
#732 = CARTESIAN_POINT('',(4.093195991447,3.814310563054,6.317449748351)
  );
#733 = CARTESIAN_POINT('',(3.953753277251,3.814310563054,6.317449748351)
  );
#734 = CARTESIAN_POINT('',(4.440892098501E-16,3.814310563054,
    6.317449748351));
#735 = CARTESIAN_POINT('',(-3.953753277251,3.814310563054,6.317449748351
    ));
#736 = CARTESIAN_POINT('',(-4.093195991447,3.814310563054,6.317449748351
    ));
#737 = CARTESIAN_POINT('',(4.093195991447,3.797459536948,6.8));
#738 = CARTESIAN_POINT('',(3.953753277251,3.797459536948,6.8));
#739 = CARTESIAN_POINT('',(6.173566506969E-16,3.797459536948,6.8));
#740 = CARTESIAN_POINT('',(-3.953753277251,3.797459536948,6.8));
#741 = CARTESIAN_POINT('',(-4.093195991447,3.797459536948,6.8));
#742 = CARTESIAN_POINT('',(4.093195991447,3.314615149544,6.8));
#743 = CARTESIAN_POINT('',(3.953753277251,3.314615149544,6.8));
#744 = CARTESIAN_POINT('',(0.,3.314615149544,6.8));
#745 = CARTESIAN_POINT('',(-3.953753277251,3.314615149544,6.8));
#746 = CARTESIAN_POINT('',(-4.093195991447,3.314615149544,6.8));
#747 = ( GEOMETRIC_REPRESENTATION_CONTEXT(3) 
GLOBAL_UNCERTAINTY_ASSIGNED_CONTEXT((#751)) GLOBAL_UNIT_ASSIGNED_CONTEXT
((#748,#749,#750)) REPRESENTATION_CONTEXT('Context #1',
  '3D Context with UNIT and UNCERTAINTY') );
#748 = ( LENGTH_UNIT() NAMED_UNIT(*) SI_UNIT(.MILLI.,.METRE.) );
#749 = ( NAMED_UNIT(*) PLANE_ANGLE_UNIT() SI_UNIT($,.RADIAN.) );
#750 = ( NAMED_UNIT(*) SI_UNIT($,.STERADIAN.) SOLID_ANGLE_UNIT() );
#751 = UNCERTAINTY_MEASURE_WITH_UNIT(LENGTH_MEASURE(2.E-06),#748,
  'distance_accuracy_value','confusion accuracy');
#752 = CONTEXT_DEPENDENT_SHAPE_REPRESENTATION(#753,#755);
#753 = ( REPRESENTATION_RELATIONSHIP('','',#40,#10) 
REPRESENTATION_RELATIONSHIP_WITH_TRANSFORMATION(#754) 
SHAPE_REPRESENTATION_RELATIONSHIP() );
#754 = ITEM_DEFINED_TRANSFORMATION('','',#11,#15);
#755 = PRODUCT_DEFINITION_SHAPE('Placement','Placement of an item',#756
  );
#756 = NEXT_ASSEMBLY_USAGE_OCCURRENCE('1','Fillet','',#5,#35,$);
#757 = PRODUCT_RELATED_PRODUCT_CATEGORY('part',$,(#37));
#758 = SHAPE_DEFINITION_REPRESENTATION(#759,#765);
#759 = PRODUCT_DEFINITION_SHAPE('','',#760);
#760 = PRODUCT_DEFINITION('design','',#761,#764);
#761 = PRODUCT_DEFINITION_FORMATION('','',#762);
#762 = PRODUCT('Fillet001','Fillet001','',(#763));
#763 = PRODUCT_CONTEXT('',#2,'mechanical');
#764 = PRODUCT_DEFINITION_CONTEXT('part definition',#2,'design');
#765 = ADVANCED_BREP_SHAPE_REPRESENTATION('',(#11,#766),#1223);
#766 = MANIFOLD_SOLID_BREP('',#767);
#767 = CLOSED_SHELL('',(#768,#808,#916,#941,#965,#1058,#1075,#1092,#1109
    ,#1126,#1143,#1160,#1177,#1194,#1211));
#768 = ADVANCED_FACE('',(#769),#803,.F.);
#769 = FACE_BOUND('',#770,.F.);
#770 = EDGE_LOOP('',(#771,#781,#789,#797));
#771 = ORIENTED_EDGE('',*,*,#772,.F.);
#772 = EDGE_CURVE('',#773,#775,#777,.T.);
#773 = VERTEX_POINT('',#774);
#774 = CARTESIAN_POINT('',(2.75,-2.5,6.8));
#775 = VERTEX_POINT('',#776);
#776 = CARTESIAN_POINT('',(2.75,0.,6.8));
#777 = LINE('',#778,#779);
#778 = CARTESIAN_POINT('',(2.75,-2.75,6.8));
#779 = VECTOR('',#780,1.);
#780 = DIRECTION('',(0.,1.,0.));
#781 = ORIENTED_EDGE('',*,*,#782,.T.);
#782 = EDGE_CURVE('',#773,#783,#785,.T.);
#783 = VERTEX_POINT('',#784);
#784 = CARTESIAN_POINT('',(2.75,-2.5,7.));
#785 = LINE('',#786,#787);
#786 = CARTESIAN_POINT('',(2.75,-2.5,6.8));
#787 = VECTOR('',#788,1.);
#788 = DIRECTION('',(0.,0.,1.));
#789 = ORIENTED_EDGE('',*,*,#790,.T.);
#790 = EDGE_CURVE('',#783,#791,#793,.T.);
#791 = VERTEX_POINT('',#792);
#792 = CARTESIAN_POINT('',(2.75,0.,7.));
#793 = LINE('',#794,#795);
#794 = CARTESIAN_POINT('',(2.75,-2.75,7.));
#795 = VECTOR('',#796,1.);
#796 = DIRECTION('',(0.,1.,0.));
#797 = ORIENTED_EDGE('',*,*,#798,.F.);
#798 = EDGE_CURVE('',#775,#791,#799,.T.);
#799 = LINE('',#800,#801);
#800 = CARTESIAN_POINT('',(2.75,0.,6.8));
#801 = VECTOR('',#802,1.);
#802 = DIRECTION('',(0.,0.,1.));
#803 = PLANE('',#804);
#804 = AXIS2_PLACEMENT_3D('',#805,#806,#807);
#805 = CARTESIAN_POINT('',(2.75,-2.75,6.8));
#806 = DIRECTION('',(-1.,0.,0.));
#807 = DIRECTION('',(0.,1.,0.));
#808 = ADVANCED_FACE('',(#809),#911,.F.);
#809 = FACE_BOUND('',#810,.F.);
#810 = EDGE_LOOP('',(#811,#812,#820,#829,#837,#845,#854,#862,#871,#879,
    #887,#896,#904));
#811 = ORIENTED_EDGE('',*,*,#772,.T.);
#812 = ORIENTED_EDGE('',*,*,#813,.T.);
#813 = EDGE_CURVE('',#775,#814,#816,.T.);
#814 = VERTEX_POINT('',#815);
#815 = CARTESIAN_POINT('',(2.75,2.5,6.8));
#816 = LINE('',#817,#818);
#817 = CARTESIAN_POINT('',(2.75,0.,6.8));
#818 = VECTOR('',#819,1.);
#819 = DIRECTION('',(0.,1.,0.));
#820 = ORIENTED_EDGE('',*,*,#821,.T.);
#821 = EDGE_CURVE('',#814,#822,#824,.T.);
#822 = VERTEX_POINT('',#823);
#823 = CARTESIAN_POINT('',(2.5,2.75,6.8));
#824 = CIRCLE('',#825,0.25);
#825 = AXIS2_PLACEMENT_3D('',#826,#827,#828);
#826 = CARTESIAN_POINT('',(2.5,2.5,6.8));
#827 = DIRECTION('',(0.,0.,1.));
#828 = DIRECTION('',(0.,-1.,0.));
#829 = ORIENTED_EDGE('',*,*,#830,.T.);
#830 = EDGE_CURVE('',#822,#831,#833,.T.);
#831 = VERTEX_POINT('',#832);
#832 = CARTESIAN_POINT('',(0.,2.75,6.8));
#833 = LINE('',#834,#835);
#834 = CARTESIAN_POINT('',(2.75,2.75,6.8));
#835 = VECTOR('',#836,1.);
#836 = DIRECTION('',(-1.,0.,0.));
#837 = ORIENTED_EDGE('',*,*,#838,.F.);
#838 = EDGE_CURVE('',#839,#831,#841,.T.);
#839 = VERTEX_POINT('',#840);
#840 = CARTESIAN_POINT('',(-1.167622633336,2.75,6.8));
#841 = LINE('',#842,#843);
#842 = CARTESIAN_POINT('',(-1.271176,2.75,6.8));
#843 = VECTOR('',#844,1.);
#844 = DIRECTION('',(1.,0.,0.));
#845 = ORIENTED_EDGE('',*,*,#846,.T.);
#846 = EDGE_CURVE('',#839,#847,#849,.T.);
#847 = VERTEX_POINT('',#848);
#848 = CARTESIAN_POINT('',(-1.344399299748,2.676776724181,6.8));
#849 = CIRCLE('',#850,0.25);
#850 = AXIS2_PLACEMENT_3D('',#851,#852,#853);
#851 = CARTESIAN_POINT('',(-1.167622633336,2.5,6.8));
#852 = DIRECTION('',(0.,0.,1.));
#853 = DIRECTION('',(0.,-1.,0.));
#854 = ORIENTED_EDGE('',*,*,#855,.F.);
#855 = EDGE_CURVE('',#856,#847,#858,.T.);
#856 = VERTEX_POINT('',#857);
#857 = CARTESIAN_POINT('',(-2.676776666412,1.344399792931,6.8));
#858 = LINE('',#859,#860);
#859 = CARTESIAN_POINT('',(-2.75,1.271176483272,6.8));
#860 = VECTOR('',#861,1.);
#861 = DIRECTION('',(0.707106896726,0.707106665647,0.));
#862 = ORIENTED_EDGE('',*,*,#863,.T.);
#863 = EDGE_CURVE('',#856,#864,#866,.T.);
#864 = VERTEX_POINT('',#865);
#865 = CARTESIAN_POINT('',(-2.75,1.16762306875,6.8));
#866 = CIRCLE('',#867,0.25);
#867 = AXIS2_PLACEMENT_3D('',#868,#869,#870);
#868 = CARTESIAN_POINT('',(-2.5,1.16762306875,6.8));
#869 = DIRECTION('',(0.,0.,1.));
#870 = DIRECTION('',(0.,-1.,0.));
#871 = ORIENTED_EDGE('',*,*,#872,.F.);
#872 = EDGE_CURVE('',#873,#864,#875,.T.);
#873 = VERTEX_POINT('',#874);
#874 = CARTESIAN_POINT('',(-2.75,0.,6.8));
#875 = LINE('',#876,#877);
#876 = CARTESIAN_POINT('',(-2.75,0.,6.8));
#877 = VECTOR('',#878,1.);
#878 = DIRECTION('',(0.,1.,0.));
#879 = ORIENTED_EDGE('',*,*,#880,.F.);
#880 = EDGE_CURVE('',#881,#873,#883,.T.);
#881 = VERTEX_POINT('',#882);
#882 = CARTESIAN_POINT('',(-2.75,-2.5,6.8));
#883 = LINE('',#884,#885);
#884 = CARTESIAN_POINT('',(-2.75,-2.75,6.8));
#885 = VECTOR('',#886,1.);
#886 = DIRECTION('',(0.,1.,0.));
#887 = ORIENTED_EDGE('',*,*,#888,.T.);
#888 = EDGE_CURVE('',#881,#889,#891,.T.);
#889 = VERTEX_POINT('',#890);
#890 = CARTESIAN_POINT('',(-2.5,-2.75,6.8));
#891 = CIRCLE('',#892,0.25);
#892 = AXIS2_PLACEMENT_3D('',#893,#894,#895);
#893 = CARTESIAN_POINT('',(-2.5,-2.5,6.8));
#894 = DIRECTION('',(0.,0.,1.));
#895 = DIRECTION('',(0.,-1.,0.));
#896 = ORIENTED_EDGE('',*,*,#897,.F.);
#897 = EDGE_CURVE('',#898,#889,#900,.T.);
#898 = VERTEX_POINT('',#899);
#899 = CARTESIAN_POINT('',(2.5,-2.75,6.8));
#900 = LINE('',#901,#902);
#901 = CARTESIAN_POINT('',(2.75,-2.75,6.8));
#902 = VECTOR('',#903,1.);
#903 = DIRECTION('',(-1.,0.,0.));
#904 = ORIENTED_EDGE('',*,*,#905,.F.);
#905 = EDGE_CURVE('',#773,#898,#906,.T.);
#906 = CIRCLE('',#907,0.25);
#907 = AXIS2_PLACEMENT_3D('',#908,#909,#910);
#908 = CARTESIAN_POINT('',(2.5,-2.5,6.8));
#909 = DIRECTION('',(-0.,-0.,-1.));
#910 = DIRECTION('',(0.,-1.,0.));
#911 = PLANE('',#912);
#912 = AXIS2_PLACEMENT_3D('',#913,#914,#915);
#913 = CARTESIAN_POINT('',(0.134154379417,-0.134154389322,6.8));
#914 = DIRECTION('',(0.,0.,1.));
#915 = DIRECTION('',(1.,0.,0.));
#916 = ADVANCED_FACE('',(#917),#936,.T.);
#917 = FACE_BOUND('',#918,.F.);
#918 = EDGE_LOOP('',(#919,#920,#928,#935));
#919 = ORIENTED_EDGE('',*,*,#905,.T.);
#920 = ORIENTED_EDGE('',*,*,#921,.T.);
#921 = EDGE_CURVE('',#898,#922,#924,.T.);
#922 = VERTEX_POINT('',#923);
#923 = CARTESIAN_POINT('',(2.5,-2.75,7.));
#924 = LINE('',#925,#926);
#925 = CARTESIAN_POINT('',(2.5,-2.75,6.8));
#926 = VECTOR('',#927,1.);
#927 = DIRECTION('',(0.,0.,1.));
#928 = ORIENTED_EDGE('',*,*,#929,.F.);
#929 = EDGE_CURVE('',#783,#922,#930,.T.);
#930 = CIRCLE('',#931,0.25);
#931 = AXIS2_PLACEMENT_3D('',#932,#933,#934);
#932 = CARTESIAN_POINT('',(2.5,-2.5,7.));
#933 = DIRECTION('',(-0.,-0.,-1.));
#934 = DIRECTION('',(0.,-1.,0.));
#935 = ORIENTED_EDGE('',*,*,#782,.F.);
#936 = CYLINDRICAL_SURFACE('',#937,0.25);
#937 = AXIS2_PLACEMENT_3D('',#938,#939,#940);
#938 = CARTESIAN_POINT('',(2.5,-2.5,6.8));
#939 = DIRECTION('',(0.,0.,1.));
#940 = DIRECTION('',(1.,0.,-0.));
#941 = ADVANCED_FACE('',(#942),#960,.F.);
#942 = FACE_BOUND('',#943,.F.);
#943 = EDGE_LOOP('',(#944,#945,#946,#954));
#944 = ORIENTED_EDGE('',*,*,#813,.F.);
#945 = ORIENTED_EDGE('',*,*,#798,.T.);
#946 = ORIENTED_EDGE('',*,*,#947,.T.);
#947 = EDGE_CURVE('',#791,#948,#950,.T.);
#948 = VERTEX_POINT('',#949);
#949 = CARTESIAN_POINT('',(2.75,2.5,7.));
#950 = LINE('',#951,#952);
#951 = CARTESIAN_POINT('',(2.75,0.,7.));
#952 = VECTOR('',#953,1.);
#953 = DIRECTION('',(0.,1.,0.));
#954 = ORIENTED_EDGE('',*,*,#955,.F.);
#955 = EDGE_CURVE('',#814,#948,#956,.T.);
#956 = LINE('',#957,#958);
#957 = CARTESIAN_POINT('',(2.75,2.5,6.8));
#958 = VECTOR('',#959,1.);
#959 = DIRECTION('',(0.,0.,1.));
#960 = PLANE('',#961);
#961 = AXIS2_PLACEMENT_3D('',#962,#963,#964);
#962 = CARTESIAN_POINT('',(2.75,0.,6.8));
#963 = DIRECTION('',(-1.,0.,0.));
#964 = DIRECTION('',(0.,1.,0.));
#965 = ADVANCED_FACE('',(#966),#1053,.T.);
#966 = FACE_BOUND('',#967,.T.);
#967 = EDGE_LOOP('',(#968,#969,#970,#979,#987,#995,#1004,#1012,#1021,
    #1029,#1037,#1046,#1052));
#968 = ORIENTED_EDGE('',*,*,#790,.T.);
#969 = ORIENTED_EDGE('',*,*,#947,.T.);
#970 = ORIENTED_EDGE('',*,*,#971,.T.);
#971 = EDGE_CURVE('',#948,#972,#974,.T.);
#972 = VERTEX_POINT('',#973);
#973 = CARTESIAN_POINT('',(2.5,2.75,7.));
#974 = CIRCLE('',#975,0.25);
#975 = AXIS2_PLACEMENT_3D('',#976,#977,#978);
#976 = CARTESIAN_POINT('',(2.5,2.5,7.));
#977 = DIRECTION('',(0.,0.,1.));
#978 = DIRECTION('',(0.,-1.,0.));
#979 = ORIENTED_EDGE('',*,*,#980,.T.);
#980 = EDGE_CURVE('',#972,#981,#983,.T.);
#981 = VERTEX_POINT('',#982);
#982 = CARTESIAN_POINT('',(0.,2.75,7.));
#983 = LINE('',#984,#985);
#984 = CARTESIAN_POINT('',(2.75,2.75,7.));
#985 = VECTOR('',#986,1.);
#986 = DIRECTION('',(-1.,0.,0.));
#987 = ORIENTED_EDGE('',*,*,#988,.F.);
#988 = EDGE_CURVE('',#989,#981,#991,.T.);
#989 = VERTEX_POINT('',#990);
#990 = CARTESIAN_POINT('',(-1.167622633336,2.75,7.));
#991 = LINE('',#992,#993);
#992 = CARTESIAN_POINT('',(-1.271176,2.75,7.));
#993 = VECTOR('',#994,1.);
#994 = DIRECTION('',(1.,0.,0.));
#995 = ORIENTED_EDGE('',*,*,#996,.T.);
#996 = EDGE_CURVE('',#989,#997,#999,.T.);
#997 = VERTEX_POINT('',#998);
#998 = CARTESIAN_POINT('',(-1.344399299748,2.676776724181,7.));
#999 = CIRCLE('',#1000,0.25);
#1000 = AXIS2_PLACEMENT_3D('',#1001,#1002,#1003);
#1001 = CARTESIAN_POINT('',(-1.167622633336,2.5,7.));
#1002 = DIRECTION('',(0.,0.,1.));
#1003 = DIRECTION('',(0.,-1.,0.));
#1004 = ORIENTED_EDGE('',*,*,#1005,.F.);
#1005 = EDGE_CURVE('',#1006,#997,#1008,.T.);
#1006 = VERTEX_POINT('',#1007);
#1007 = CARTESIAN_POINT('',(-2.676776666412,1.344399792931,7.));
#1008 = LINE('',#1009,#1010);
#1009 = CARTESIAN_POINT('',(-2.75,1.271176483272,7.));
#1010 = VECTOR('',#1011,1.);
#1011 = DIRECTION('',(0.707106896726,0.707106665647,0.));
#1012 = ORIENTED_EDGE('',*,*,#1013,.T.);
#1013 = EDGE_CURVE('',#1006,#1014,#1016,.T.);
#1014 = VERTEX_POINT('',#1015);
#1015 = CARTESIAN_POINT('',(-2.75,1.16762306875,7.));
#1016 = CIRCLE('',#1017,0.25);
#1017 = AXIS2_PLACEMENT_3D('',#1018,#1019,#1020);
#1018 = CARTESIAN_POINT('',(-2.5,1.16762306875,7.));
#1019 = DIRECTION('',(0.,0.,1.));
#1020 = DIRECTION('',(0.,-1.,0.));
#1021 = ORIENTED_EDGE('',*,*,#1022,.F.);
#1022 = EDGE_CURVE('',#1023,#1014,#1025,.T.);
#1023 = VERTEX_POINT('',#1024);
#1024 = CARTESIAN_POINT('',(-2.75,0.,7.));
#1025 = LINE('',#1026,#1027);
#1026 = CARTESIAN_POINT('',(-2.75,0.,7.));
#1027 = VECTOR('',#1028,1.);
#1028 = DIRECTION('',(0.,1.,0.));
#1029 = ORIENTED_EDGE('',*,*,#1030,.F.);
#1030 = EDGE_CURVE('',#1031,#1023,#1033,.T.);
#1031 = VERTEX_POINT('',#1032);
#1032 = CARTESIAN_POINT('',(-2.75,-2.5,7.));
#1033 = LINE('',#1034,#1035);
#1034 = CARTESIAN_POINT('',(-2.75,-2.75,7.));
#1035 = VECTOR('',#1036,1.);
#1036 = DIRECTION('',(0.,1.,0.));
#1037 = ORIENTED_EDGE('',*,*,#1038,.T.);
#1038 = EDGE_CURVE('',#1031,#1039,#1041,.T.);
#1039 = VERTEX_POINT('',#1040);
#1040 = CARTESIAN_POINT('',(-2.5,-2.75,7.));
#1041 = CIRCLE('',#1042,0.25);
#1042 = AXIS2_PLACEMENT_3D('',#1043,#1044,#1045);
#1043 = CARTESIAN_POINT('',(-2.5,-2.5,7.));
#1044 = DIRECTION('',(0.,0.,1.));
#1045 = DIRECTION('',(0.,-1.,0.));
#1046 = ORIENTED_EDGE('',*,*,#1047,.F.);
#1047 = EDGE_CURVE('',#922,#1039,#1048,.T.);
#1048 = LINE('',#1049,#1050);
#1049 = CARTESIAN_POINT('',(2.75,-2.75,7.));
#1050 = VECTOR('',#1051,1.);
#1051 = DIRECTION('',(-1.,0.,0.));
#1052 = ORIENTED_EDGE('',*,*,#929,.F.);
#1053 = PLANE('',#1054);
#1054 = AXIS2_PLACEMENT_3D('',#1055,#1056,#1057);
#1055 = CARTESIAN_POINT('',(0.134154379417,-0.134154389322,7.));
#1056 = DIRECTION('',(0.,0.,1.));
#1057 = DIRECTION('',(1.,0.,0.));
#1058 = ADVANCED_FACE('',(#1059),#1070,.T.);
#1059 = FACE_BOUND('',#1060,.T.);
#1060 = EDGE_LOOP('',(#1061,#1062,#1063,#1064));
#1061 = ORIENTED_EDGE('',*,*,#897,.F.);
#1062 = ORIENTED_EDGE('',*,*,#921,.T.);
#1063 = ORIENTED_EDGE('',*,*,#1047,.T.);
#1064 = ORIENTED_EDGE('',*,*,#1065,.F.);
#1065 = EDGE_CURVE('',#889,#1039,#1066,.T.);
#1066 = LINE('',#1067,#1068);
#1067 = CARTESIAN_POINT('',(-2.5,-2.75,6.8));
#1068 = VECTOR('',#1069,1.);
#1069 = DIRECTION('',(0.,0.,1.));
#1070 = PLANE('',#1071);
#1071 = AXIS2_PLACEMENT_3D('',#1072,#1073,#1074);
#1072 = CARTESIAN_POINT('',(2.75,-2.75,6.8));
#1073 = DIRECTION('',(0.,-1.,0.));
#1074 = DIRECTION('',(-1.,0.,0.));
#1075 = ADVANCED_FACE('',(#1076),#1087,.T.);
#1076 = FACE_BOUND('',#1077,.T.);
#1077 = EDGE_LOOP('',(#1078,#1079,#1085,#1086));
#1078 = ORIENTED_EDGE('',*,*,#821,.T.);
#1079 = ORIENTED_EDGE('',*,*,#1080,.T.);
#1080 = EDGE_CURVE('',#822,#972,#1081,.T.);
#1081 = LINE('',#1082,#1083);
#1082 = CARTESIAN_POINT('',(2.5,2.75,6.8));
#1083 = VECTOR('',#1084,1.);
#1084 = DIRECTION('',(0.,0.,1.));
#1085 = ORIENTED_EDGE('',*,*,#971,.F.);
#1086 = ORIENTED_EDGE('',*,*,#955,.F.);
#1087 = CYLINDRICAL_SURFACE('',#1088,0.25);
#1088 = AXIS2_PLACEMENT_3D('',#1089,#1090,#1091);
#1089 = CARTESIAN_POINT('',(2.5,2.5,6.8));
#1090 = DIRECTION('',(0.,0.,1.));
#1091 = DIRECTION('',(1.,0.,-0.));
#1092 = ADVANCED_FACE('',(#1093),#1104,.T.);
#1093 = FACE_BOUND('',#1094,.T.);
#1094 = EDGE_LOOP('',(#1095,#1096,#1097,#1098));
#1095 = ORIENTED_EDGE('',*,*,#888,.T.);
#1096 = ORIENTED_EDGE('',*,*,#1065,.T.);
#1097 = ORIENTED_EDGE('',*,*,#1038,.F.);
#1098 = ORIENTED_EDGE('',*,*,#1099,.F.);
#1099 = EDGE_CURVE('',#881,#1031,#1100,.T.);
#1100 = LINE('',#1101,#1102);
#1101 = CARTESIAN_POINT('',(-2.75,-2.5,6.8));
#1102 = VECTOR('',#1103,1.);
#1103 = DIRECTION('',(0.,0.,1.));
#1104 = CYLINDRICAL_SURFACE('',#1105,0.25);
#1105 = AXIS2_PLACEMENT_3D('',#1106,#1107,#1108);
#1106 = CARTESIAN_POINT('',(-2.5,-2.5,6.8));
#1107 = DIRECTION('',(0.,0.,1.));
#1108 = DIRECTION('',(-1.,0.,0.));
#1109 = ADVANCED_FACE('',(#1110),#1121,.F.);
#1110 = FACE_BOUND('',#1111,.F.);
#1111 = EDGE_LOOP('',(#1112,#1113,#1114,#1115));
#1112 = ORIENTED_EDGE('',*,*,#830,.F.);
#1113 = ORIENTED_EDGE('',*,*,#1080,.T.);
#1114 = ORIENTED_EDGE('',*,*,#980,.T.);
#1115 = ORIENTED_EDGE('',*,*,#1116,.F.);
#1116 = EDGE_CURVE('',#831,#981,#1117,.T.);
#1117 = LINE('',#1118,#1119);
#1118 = CARTESIAN_POINT('',(0.,2.75,6.8));
#1119 = VECTOR('',#1120,1.);
#1120 = DIRECTION('',(0.,0.,1.));
#1121 = PLANE('',#1122);
#1122 = AXIS2_PLACEMENT_3D('',#1123,#1124,#1125);
#1123 = CARTESIAN_POINT('',(2.75,2.75,6.8));
#1124 = DIRECTION('',(0.,-1.,0.));
#1125 = DIRECTION('',(-1.,0.,0.));
#1126 = ADVANCED_FACE('',(#1127),#1138,.T.);
#1127 = FACE_BOUND('',#1128,.T.);
#1128 = EDGE_LOOP('',(#1129,#1130,#1131,#1132));
#1129 = ORIENTED_EDGE('',*,*,#880,.F.);
#1130 = ORIENTED_EDGE('',*,*,#1099,.T.);
#1131 = ORIENTED_EDGE('',*,*,#1030,.T.);
#1132 = ORIENTED_EDGE('',*,*,#1133,.F.);
#1133 = EDGE_CURVE('',#873,#1023,#1134,.T.);
#1134 = LINE('',#1135,#1136);
#1135 = CARTESIAN_POINT('',(-2.75,0.,6.8));
#1136 = VECTOR('',#1137,1.);
#1137 = DIRECTION('',(0.,0.,1.));
#1138 = PLANE('',#1139);
#1139 = AXIS2_PLACEMENT_3D('',#1140,#1141,#1142);
#1140 = CARTESIAN_POINT('',(-2.75,-2.75,6.8));
#1141 = DIRECTION('',(-1.,0.,0.));
#1142 = DIRECTION('',(0.,1.,0.));
#1143 = ADVANCED_FACE('',(#1144),#1155,.T.);
#1144 = FACE_BOUND('',#1145,.T.);
#1145 = EDGE_LOOP('',(#1146,#1147,#1153,#1154));
#1146 = ORIENTED_EDGE('',*,*,#838,.F.);
#1147 = ORIENTED_EDGE('',*,*,#1148,.T.);
#1148 = EDGE_CURVE('',#839,#989,#1149,.T.);
#1149 = LINE('',#1150,#1151);
#1150 = CARTESIAN_POINT('',(-1.167622633336,2.75,6.8));
#1151 = VECTOR('',#1152,1.);
#1152 = DIRECTION('',(0.,0.,1.));
#1153 = ORIENTED_EDGE('',*,*,#988,.T.);
#1154 = ORIENTED_EDGE('',*,*,#1116,.F.);
#1155 = PLANE('',#1156);
#1156 = AXIS2_PLACEMENT_3D('',#1157,#1158,#1159);
#1157 = CARTESIAN_POINT('',(-1.271176,2.75,6.8));
#1158 = DIRECTION('',(0.,1.,0.));
#1159 = DIRECTION('',(1.,0.,0.));
#1160 = ADVANCED_FACE('',(#1161),#1172,.T.);
#1161 = FACE_BOUND('',#1162,.T.);
#1162 = EDGE_LOOP('',(#1163,#1164,#1165,#1166));
#1163 = ORIENTED_EDGE('',*,*,#872,.F.);
#1164 = ORIENTED_EDGE('',*,*,#1133,.T.);
#1165 = ORIENTED_EDGE('',*,*,#1022,.T.);
#1166 = ORIENTED_EDGE('',*,*,#1167,.F.);
#1167 = EDGE_CURVE('',#864,#1014,#1168,.T.);
#1168 = LINE('',#1169,#1170);
#1169 = CARTESIAN_POINT('',(-2.75,1.16762306875,6.8));
#1170 = VECTOR('',#1171,1.);
#1171 = DIRECTION('',(0.,0.,1.));
#1172 = PLANE('',#1173);
#1173 = AXIS2_PLACEMENT_3D('',#1174,#1175,#1176);
#1174 = CARTESIAN_POINT('',(-2.75,0.,6.8));
#1175 = DIRECTION('',(-1.,0.,0.));
#1176 = DIRECTION('',(0.,1.,0.));
#1177 = ADVANCED_FACE('',(#1178),#1189,.T.);
#1178 = FACE_BOUND('',#1179,.T.);
#1179 = EDGE_LOOP('',(#1180,#1181,#1187,#1188));
#1180 = ORIENTED_EDGE('',*,*,#846,.T.);
#1181 = ORIENTED_EDGE('',*,*,#1182,.T.);
#1182 = EDGE_CURVE('',#847,#997,#1183,.T.);
#1183 = LINE('',#1184,#1185);
#1184 = CARTESIAN_POINT('',(-1.344399299748,2.676776724181,6.8));
#1185 = VECTOR('',#1186,1.);
#1186 = DIRECTION('',(0.,0.,1.));
#1187 = ORIENTED_EDGE('',*,*,#996,.F.);
#1188 = ORIENTED_EDGE('',*,*,#1148,.F.);
#1189 = CYLINDRICAL_SURFACE('',#1190,0.25);
#1190 = AXIS2_PLACEMENT_3D('',#1191,#1192,#1193);
#1191 = CARTESIAN_POINT('',(-1.167622633336,2.5,6.8));
#1192 = DIRECTION('',(0.,0.,1.));
#1193 = DIRECTION('',(-0.,1.,0.));
#1194 = ADVANCED_FACE('',(#1195),#1206,.T.);
#1195 = FACE_BOUND('',#1196,.T.);
#1196 = EDGE_LOOP('',(#1197,#1198,#1199,#1200));
#1197 = ORIENTED_EDGE('',*,*,#863,.T.);
#1198 = ORIENTED_EDGE('',*,*,#1167,.T.);
#1199 = ORIENTED_EDGE('',*,*,#1013,.F.);
#1200 = ORIENTED_EDGE('',*,*,#1201,.F.);
#1201 = EDGE_CURVE('',#856,#1006,#1202,.T.);
#1202 = LINE('',#1203,#1204);
#1203 = CARTESIAN_POINT('',(-2.676776666412,1.344399792931,6.8));
#1204 = VECTOR('',#1205,1.);
#1205 = DIRECTION('',(0.,0.,1.));
#1206 = CYLINDRICAL_SURFACE('',#1207,0.25);
#1207 = AXIS2_PLACEMENT_3D('',#1208,#1209,#1210);
#1208 = CARTESIAN_POINT('',(-2.5,1.16762306875,6.8));
#1209 = DIRECTION('',(0.,0.,1.));
#1210 = DIRECTION('',(-0.707106665647,0.707106896726,0.));
#1211 = ADVANCED_FACE('',(#1212),#1218,.T.);
#1212 = FACE_BOUND('',#1213,.T.);
#1213 = EDGE_LOOP('',(#1214,#1215,#1216,#1217));
#1214 = ORIENTED_EDGE('',*,*,#855,.F.);
#1215 = ORIENTED_EDGE('',*,*,#1201,.T.);
#1216 = ORIENTED_EDGE('',*,*,#1005,.T.);
#1217 = ORIENTED_EDGE('',*,*,#1182,.F.);
#1218 = PLANE('',#1219);
#1219 = AXIS2_PLACEMENT_3D('',#1220,#1221,#1222);
#1220 = CARTESIAN_POINT('',(-2.75,1.271176483272,6.8));
#1221 = DIRECTION('',(-0.707106665647,0.707106896726,0.));
#1222 = DIRECTION('',(0.707106896726,0.707106665647,0.));
#1223 = ( GEOMETRIC_REPRESENTATION_CONTEXT(3) 
GLOBAL_UNCERTAINTY_ASSIGNED_CONTEXT((#1227)) 
GLOBAL_UNIT_ASSIGNED_CONTEXT((#1224,#1225,#1226)) REPRESENTATION_CONTEXT
('Context #1','3D Context with UNIT and UNCERTAINTY') );
#1224 = ( LENGTH_UNIT() NAMED_UNIT(*) SI_UNIT(.MILLI.,.METRE.) );
#1225 = ( NAMED_UNIT(*) PLANE_ANGLE_UNIT() SI_UNIT($,.RADIAN.) );
#1226 = ( NAMED_UNIT(*) SI_UNIT($,.STERADIAN.) SOLID_ANGLE_UNIT() );
#1227 = UNCERTAINTY_MEASURE_WITH_UNIT(LENGTH_MEASURE(1.E-07),#1224,
  'distance_accuracy_value','confusion accuracy');
#1228 = CONTEXT_DEPENDENT_SHAPE_REPRESENTATION(#1229,#1231);
#1229 = ( REPRESENTATION_RELATIONSHIP('','',#765,#10) 
REPRESENTATION_RELATIONSHIP_WITH_TRANSFORMATION(#1230) 
SHAPE_REPRESENTATION_RELATIONSHIP() );
#1230 = ITEM_DEFINED_TRANSFORMATION('','',#11,#19);
#1231 = PRODUCT_DEFINITION_SHAPE('Placement','Placement of an item',
  #1232);
#1232 = NEXT_ASSEMBLY_USAGE_OCCURRENCE('2','Fillet001','',#5,#760,$);
#1233 = PRODUCT_RELATED_PRODUCT_CATEGORY('part',$,(#762));
#1234 = SHAPE_DEFINITION_REPRESENTATION(#1235,#1241);
#1235 = PRODUCT_DEFINITION_SHAPE('','',#1236);
#1236 = PRODUCT_DEFINITION('design','',#1237,#1240);
#1237 = PRODUCT_DEFINITION_FORMATION('','',#1238);
#1238 = PRODUCT('Pocket','Pocket','',(#1239));
#1239 = PRODUCT_CONTEXT('',#2,'mechanical');
#1240 = PRODUCT_DEFINITION_CONTEXT('part definition',#2,'design');
#1241 = ADVANCED_BREP_SHAPE_REPRESENTATION('',(#11,#1242),#1437);
#1242 = MANIFOLD_SOLID_BREP('',#1243);
#1243 = CLOSED_SHELL('',(#1244,#1284,#1315,#1346,#1363,#1391,#1403,#1428
    ));
#1244 = ADVANCED_FACE('',(#1245),#1279,.F.);
#1245 = FACE_BOUND('',#1246,.F.);
#1246 = EDGE_LOOP('',(#1247,#1257,#1265,#1273));
#1247 = ORIENTED_EDGE('',*,*,#1248,.T.);
#1248 = EDGE_CURVE('',#1249,#1251,#1253,.T.);
#1249 = VERTEX_POINT('',#1250);
#1250 = CARTESIAN_POINT('',(-5.2,-5.2,0.));
#1251 = VERTEX_POINT('',#1252);
#1252 = CARTESIAN_POINT('',(-5.2,-5.2,1.));
#1253 = LINE('',#1254,#1255);
#1254 = CARTESIAN_POINT('',(-5.2,-5.2,0.));
#1255 = VECTOR('',#1256,1.);
#1256 = DIRECTION('',(0.,0.,1.));
#1257 = ORIENTED_EDGE('',*,*,#1258,.T.);
#1258 = EDGE_CURVE('',#1251,#1259,#1261,.T.);
#1259 = VERTEX_POINT('',#1260);
#1260 = CARTESIAN_POINT('',(5.2,-5.2,1.));
#1261 = LINE('',#1262,#1263);
#1262 = CARTESIAN_POINT('',(-5.2,-5.2,1.));
#1263 = VECTOR('',#1264,1.);
#1264 = DIRECTION('',(1.,0.,0.));
#1265 = ORIENTED_EDGE('',*,*,#1266,.F.);
#1266 = EDGE_CURVE('',#1267,#1259,#1269,.T.);
#1267 = VERTEX_POINT('',#1268);
#1268 = CARTESIAN_POINT('',(5.2,-5.2,0.));
#1269 = LINE('',#1270,#1271);
#1270 = CARTESIAN_POINT('',(5.2,-5.2,0.));
#1271 = VECTOR('',#1272,1.);
#1272 = DIRECTION('',(0.,0.,1.));
#1273 = ORIENTED_EDGE('',*,*,#1274,.F.);
#1274 = EDGE_CURVE('',#1249,#1267,#1275,.T.);
#1275 = LINE('',#1276,#1277);
#1276 = CARTESIAN_POINT('',(-5.2,-5.2,0.));
#1277 = VECTOR('',#1278,1.);
#1278 = DIRECTION('',(1.,0.,0.));
#1279 = PLANE('',#1280);
#1280 = AXIS2_PLACEMENT_3D('',#1281,#1282,#1283);
#1281 = CARTESIAN_POINT('',(-5.2,-5.2,0.));
#1282 = DIRECTION('',(0.,1.,0.));
#1283 = DIRECTION('',(1.,0.,0.));
#1284 = ADVANCED_FACE('',(#1285),#1310,.F.);
#1285 = FACE_BOUND('',#1286,.F.);
#1286 = EDGE_LOOP('',(#1287,#1297,#1303,#1304));
#1287 = ORIENTED_EDGE('',*,*,#1288,.T.);
#1288 = EDGE_CURVE('',#1289,#1291,#1293,.T.);
#1289 = VERTEX_POINT('',#1290);
#1290 = CARTESIAN_POINT('',(-5.2,5.2,0.));
#1291 = VERTEX_POINT('',#1292);
#1292 = CARTESIAN_POINT('',(-5.2,5.2,1.));
#1293 = LINE('',#1294,#1295);
#1294 = CARTESIAN_POINT('',(-5.2,5.2,0.));
#1295 = VECTOR('',#1296,1.);
#1296 = DIRECTION('',(0.,0.,1.));
#1297 = ORIENTED_EDGE('',*,*,#1298,.T.);
#1298 = EDGE_CURVE('',#1291,#1251,#1299,.T.);
#1299 = LINE('',#1300,#1301);
#1300 = CARTESIAN_POINT('',(-5.2,5.2,1.));
#1301 = VECTOR('',#1302,1.);
#1302 = DIRECTION('',(0.,-1.,0.));
#1303 = ORIENTED_EDGE('',*,*,#1248,.F.);
#1304 = ORIENTED_EDGE('',*,*,#1305,.F.);
#1305 = EDGE_CURVE('',#1289,#1249,#1306,.T.);
#1306 = LINE('',#1307,#1308);
#1307 = CARTESIAN_POINT('',(-5.2,5.2,0.));
#1308 = VECTOR('',#1309,1.);
#1309 = DIRECTION('',(0.,-1.,0.));
#1310 = PLANE('',#1311);
#1311 = AXIS2_PLACEMENT_3D('',#1312,#1313,#1314);
#1312 = CARTESIAN_POINT('',(-5.2,5.2,0.));
#1313 = DIRECTION('',(1.,0.,0.));
#1314 = DIRECTION('',(0.,-1.,0.));
#1315 = ADVANCED_FACE('',(#1316),#1341,.F.);
#1316 = FACE_BOUND('',#1317,.F.);
#1317 = EDGE_LOOP('',(#1318,#1319,#1327,#1335));
#1318 = ORIENTED_EDGE('',*,*,#1266,.T.);
#1319 = ORIENTED_EDGE('',*,*,#1320,.T.);
#1320 = EDGE_CURVE('',#1259,#1321,#1323,.T.);
#1321 = VERTEX_POINT('',#1322);
#1322 = CARTESIAN_POINT('',(5.2,5.2,1.));
#1323 = LINE('',#1324,#1325);
#1324 = CARTESIAN_POINT('',(5.2,-5.2,1.));
#1325 = VECTOR('',#1326,1.);
#1326 = DIRECTION('',(0.,1.,0.));
#1327 = ORIENTED_EDGE('',*,*,#1328,.F.);
#1328 = EDGE_CURVE('',#1329,#1321,#1331,.T.);
#1329 = VERTEX_POINT('',#1330);
#1330 = CARTESIAN_POINT('',(5.2,5.2,0.));
#1331 = LINE('',#1332,#1333);
#1332 = CARTESIAN_POINT('',(5.2,5.2,0.));
#1333 = VECTOR('',#1334,1.);
#1334 = DIRECTION('',(0.,0.,1.));
#1335 = ORIENTED_EDGE('',*,*,#1336,.F.);
#1336 = EDGE_CURVE('',#1267,#1329,#1337,.T.);
#1337 = LINE('',#1338,#1339);
#1338 = CARTESIAN_POINT('',(5.2,-5.2,0.));
#1339 = VECTOR('',#1340,1.);
#1340 = DIRECTION('',(0.,1.,0.));
#1341 = PLANE('',#1342);
#1342 = AXIS2_PLACEMENT_3D('',#1343,#1344,#1345);
#1343 = CARTESIAN_POINT('',(5.2,-5.2,0.));
#1344 = DIRECTION('',(-1.,0.,0.));
#1345 = DIRECTION('',(0.,1.,0.));
#1346 = ADVANCED_FACE('',(#1347),#1358,.F.);
#1347 = FACE_BOUND('',#1348,.F.);
#1348 = EDGE_LOOP('',(#1349,#1350,#1351,#1357));
#1349 = ORIENTED_EDGE('',*,*,#1274,.T.);
#1350 = ORIENTED_EDGE('',*,*,#1336,.T.);
#1351 = ORIENTED_EDGE('',*,*,#1352,.T.);
#1352 = EDGE_CURVE('',#1329,#1289,#1353,.T.);
#1353 = LINE('',#1354,#1355);
#1354 = CARTESIAN_POINT('',(5.2,5.2,0.));
#1355 = VECTOR('',#1356,1.);
#1356 = DIRECTION('',(-1.,0.,0.));
#1357 = ORIENTED_EDGE('',*,*,#1305,.T.);
#1358 = PLANE('',#1359);
#1359 = AXIS2_PLACEMENT_3D('',#1360,#1361,#1362);
#1360 = CARTESIAN_POINT('',(-1.7080354225E-16,1.7080354225E-16,0.));
#1361 = DIRECTION('',(0.,0.,1.));
#1362 = DIRECTION('',(1.,0.,0.));
#1363 = ADVANCED_FACE('',(#1364,#1375),#1386,.T.);
#1364 = FACE_BOUND('',#1365,.T.);
#1365 = EDGE_LOOP('',(#1366,#1367,#1368,#1374));
#1366 = ORIENTED_EDGE('',*,*,#1258,.T.);
#1367 = ORIENTED_EDGE('',*,*,#1320,.T.);
#1368 = ORIENTED_EDGE('',*,*,#1369,.T.);
#1369 = EDGE_CURVE('',#1321,#1291,#1370,.T.);
#1370 = LINE('',#1371,#1372);
#1371 = CARTESIAN_POINT('',(5.2,5.2,1.));
#1372 = VECTOR('',#1373,1.);
#1373 = DIRECTION('',(-1.,0.,0.));
#1374 = ORIENTED_EDGE('',*,*,#1298,.T.);
#1375 = FACE_BOUND('',#1376,.T.);
#1376 = EDGE_LOOP('',(#1377));
#1377 = ORIENTED_EDGE('',*,*,#1378,.F.);
#1378 = EDGE_CURVE('',#1379,#1379,#1381,.T.);
#1379 = VERTEX_POINT('',#1380);
#1380 = CARTESIAN_POINT('',(-4.091066,4.395533,1.));
#1381 = CIRCLE('',#1382,0.304467);
#1382 = AXIS2_PLACEMENT_3D('',#1383,#1384,#1385);
#1383 = CARTESIAN_POINT('',(-4.395533,4.395533,1.));
#1384 = DIRECTION('',(0.,0.,1.));
#1385 = DIRECTION('',(1.,0.,0.));
#1386 = PLANE('',#1387);
#1387 = AXIS2_PLACEMENT_3D('',#1388,#1389,#1390);
#1388 = CARTESIAN_POINT('',(-1.7080354225E-16,1.7080354225E-16,1.));
#1389 = DIRECTION('',(0.,0.,1.));
#1390 = DIRECTION('',(1.,0.,0.));
#1391 = ADVANCED_FACE('',(#1392),#1398,.F.);
#1392 = FACE_BOUND('',#1393,.F.);
#1393 = EDGE_LOOP('',(#1394,#1395,#1396,#1397));
#1394 = ORIENTED_EDGE('',*,*,#1328,.T.);
#1395 = ORIENTED_EDGE('',*,*,#1369,.T.);
#1396 = ORIENTED_EDGE('',*,*,#1288,.F.);
#1397 = ORIENTED_EDGE('',*,*,#1352,.F.);
#1398 = PLANE('',#1399);
#1399 = AXIS2_PLACEMENT_3D('',#1400,#1401,#1402);
#1400 = CARTESIAN_POINT('',(5.2,5.2,0.));
#1401 = DIRECTION('',(0.,-1.,0.));
#1402 = DIRECTION('',(-1.,0.,0.));
#1403 = ADVANCED_FACE('',(#1404),#1423,.F.);
#1404 = FACE_BOUND('',#1405,.F.);
#1405 = EDGE_LOOP('',(#1406,#1414,#1421,#1422));
#1406 = ORIENTED_EDGE('',*,*,#1407,.T.);
#1407 = EDGE_CURVE('',#1379,#1408,#1410,.T.);
#1408 = VERTEX_POINT('',#1409);
#1409 = CARTESIAN_POINT('',(-4.091066,4.395533,0.8));
#1410 = LINE('',#1411,#1412);
#1411 = CARTESIAN_POINT('',(-4.091066,4.395533,1.));
#1412 = VECTOR('',#1413,1.);
#1413 = DIRECTION('',(-0.,-0.,-1.));
#1414 = ORIENTED_EDGE('',*,*,#1415,.T.);
#1415 = EDGE_CURVE('',#1408,#1408,#1416,.T.);
#1416 = CIRCLE('',#1417,0.304467);
#1417 = AXIS2_PLACEMENT_3D('',#1418,#1419,#1420);
#1418 = CARTESIAN_POINT('',(-4.395533,4.395533,0.8));
#1419 = DIRECTION('',(0.,0.,1.));
#1420 = DIRECTION('',(1.,0.,0.));
#1421 = ORIENTED_EDGE('',*,*,#1407,.F.);
#1422 = ORIENTED_EDGE('',*,*,#1378,.F.);
#1423 = CYLINDRICAL_SURFACE('',#1424,0.304467);
#1424 = AXIS2_PLACEMENT_3D('',#1425,#1426,#1427);
#1425 = CARTESIAN_POINT('',(-4.395533,4.395533,1.));
#1426 = DIRECTION('',(0.,0.,1.));
#1427 = DIRECTION('',(1.,0.,0.));
#1428 = ADVANCED_FACE('',(#1429),#1432,.T.);
#1429 = FACE_BOUND('',#1430,.T.);
#1430 = EDGE_LOOP('',(#1431));
#1431 = ORIENTED_EDGE('',*,*,#1415,.T.);
#1432 = PLANE('',#1433);
#1433 = AXIS2_PLACEMENT_3D('',#1434,#1435,#1436);
#1434 = CARTESIAN_POINT('',(-4.395533,4.395533,0.8));
#1435 = DIRECTION('',(0.,0.,1.));
#1436 = DIRECTION('',(1.,0.,0.));
#1437 = ( GEOMETRIC_REPRESENTATION_CONTEXT(3) 
GLOBAL_UNCERTAINTY_ASSIGNED_CONTEXT((#1441)) 
GLOBAL_UNIT_ASSIGNED_CONTEXT((#1438,#1439,#1440)) REPRESENTATION_CONTEXT
('Context #1','3D Context with UNIT and UNCERTAINTY') );
#1438 = ( LENGTH_UNIT() NAMED_UNIT(*) SI_UNIT(.MILLI.,.METRE.) );
#1439 = ( NAMED_UNIT(*) PLANE_ANGLE_UNIT() SI_UNIT($,.RADIAN.) );
#1440 = ( NAMED_UNIT(*) SI_UNIT($,.STERADIAN.) SOLID_ANGLE_UNIT() );
#1441 = UNCERTAINTY_MEASURE_WITH_UNIT(LENGTH_MEASURE(1.E-07),#1438,
  'distance_accuracy_value','confusion accuracy');
#1442 = CONTEXT_DEPENDENT_SHAPE_REPRESENTATION(#1443,#1445);
#1443 = ( REPRESENTATION_RELATIONSHIP('','',#1241,#10) 
REPRESENTATION_RELATIONSHIP_WITH_TRANSFORMATION(#1444) 
SHAPE_REPRESENTATION_RELATIONSHIP() );
#1444 = ITEM_DEFINED_TRANSFORMATION('','',#11,#23);
#1445 = PRODUCT_DEFINITION_SHAPE('Placement','Placement of an item',
  #1446);
#1446 = NEXT_ASSEMBLY_USAGE_OCCURRENCE('3','Pocket','',#5,#1236,$);
#1447 = PRODUCT_RELATED_PRODUCT_CATEGORY('part',$,(#1238));
#1448 = MECHANICAL_DESIGN_GEOMETRIC_PRESENTATION_REPRESENTATION('',(
    #1449),#747);
#1449 = STYLED_ITEM('color',(#1450),#41);
#1450 = PRESENTATION_STYLE_ASSIGNMENT((#1451,#1457));
#1451 = SURFACE_STYLE_USAGE(.BOTH.,#1452);
#1452 = SURFACE_SIDE_STYLE('',(#1453));
#1453 = SURFACE_STYLE_FILL_AREA(#1454);
#1454 = FILL_AREA_STYLE('',(#1455));
#1455 = FILL_AREA_STYLE_COLOUR('',#1456);
#1456 = COLOUR_RGB('',0.678431390124,0.709803936702,0.741176476869);
#1457 = CURVE_STYLE('',#1458,POSITIVE_LENGTH_MEASURE(0.1),#1459);
#1458 = DRAUGHTING_PRE_DEFINED_CURVE_FONT('continuous');
#1459 = COLOUR_RGB('',9.803921802644E-02,9.803921802644E-02,
  9.803921802644E-02);
#1460 = MECHANICAL_DESIGN_GEOMETRIC_PRESENTATION_REPRESENTATION('',(
    #1461),#1223);
#1461 = STYLED_ITEM('color',(#1462),#766);
#1462 = PRESENTATION_STYLE_ASSIGNMENT((#1463,#1468));
#1463 = SURFACE_STYLE_USAGE(.BOTH.,#1464);
#1464 = SURFACE_SIDE_STYLE('',(#1465));
#1465 = SURFACE_STYLE_FILL_AREA(#1466);
#1466 = FILL_AREA_STYLE('',(#1467));
#1467 = FILL_AREA_STYLE_COLOUR('',#1456);
#1468 = CURVE_STYLE('',#1469,POSITIVE_LENGTH_MEASURE(0.1),#1459);
#1469 = DRAUGHTING_PRE_DEFINED_CURVE_FONT('continuous');
#1470 = MECHANICAL_DESIGN_GEOMETRIC_PRESENTATION_REPRESENTATION('',(
    #1471),#1437);
#1471 = STYLED_ITEM('color',(#1472),#1242);
#1472 = PRESENTATION_STYLE_ASSIGNMENT((#1473,#1479));
#1473 = SURFACE_STYLE_USAGE(.BOTH.,#1474);
#1474 = SURFACE_SIDE_STYLE('',(#1475));
#1475 = SURFACE_STYLE_FILL_AREA(#1476);
#1476 = FILL_AREA_STYLE('',(#1477));
#1477 = FILL_AREA_STYLE_COLOUR('',#1478);
#1478 = COLOUR_RGB('',0.,0.333333345507,0.);
#1479 = CURVE_STYLE('',#1480,POSITIVE_LENGTH_MEASURE(0.1),#1459);
#1480 = DRAUGHTING_PRE_DEFINED_CURVE_FONT('continuous');
ENDSEC;
END-ISO-10303-21;
